{
  "meta": {
    "title": "Rossler's Strange Attractor",
    "tempo": 72,
    "durationBeats": 195.18194406142837,
    "durationSec": 162.65162005119032,
    "fps": 60,
    "audioFile": "track_07.wav"
  },
  "voices": [
    {
      "name": "melody_violin",
      "instrument": 40,
      "channel": 0,
      "notes": [
        {
          "pitch": 78,
          "velocity": 22,
          "startBeat": 0.0,
          "durationBeat": 0.75,
          "startSec": 0.0,
          "durationSec": 0.625,
          "pitchBend": 0.0
        },
        {
          "pitch": 78,
          "velocity": 22,
          "startBeat": 0.75,
          "durationBeat": 0.7523099361628572,
          "startSec": 0.625,
          "durationSec": 0.6269249468023811,
          "pitchBend": 0.0
        },
        {
          "pitch": 81,
          "velocity": 23,
          "startBeat": 1.5023099361628574,
          "durationBeat": 0.754619521724134,
          "startSec": 1.2519249468023812,
          "durationSec": 0.6288496014367784,
          "pitchBend": 0.0
        },
        {
          "pitch": 76,
          "velocity": 23,
          "startBeat": 3.0069294578869914,
          "durationBeat": 0.7592362389549032,
          "startSec": 2.5057745482391596,
          "durationSec": 0.6326968657957527,
          "pitchBend": 0.0
        },
        {
          "pitch": 76,
          "velocity": 23,
          "startBeat": 3.7661656968418944,
          "durationBeat": 0.7615426699001143,
          "startSec": 3.138471414034912,
          "durationSec": 0.6346188915834287,
          "pitchBend": 0.0
        },
        {
          "pitch": 76,
          "velocity": 24,
          "startBeat": 6.027708366742009,
          "durationBeat": 0.8068725547863047,
          "startSec": 5.023090305618341,
          "durationSec": 0.6723937956552539,
          "pitchBend": 0.0
        },
        {
          "pitch": 79,
          "velocity": 24,
          "startBeat": 6.834580921528314,
          "durationBeat": 0.8478221156401221,
          "startSec": 5.695484101273595,
          "durationSec": 0.7065184297001018,
          "pitchBend": 0.0
        },
        {
          "pitch": 78,
          "velocity": 24,
          "startBeat": 7.682403037168436,
          "durationBeat": 0.8889977876745789,
          "startSec": 6.402002530973697,
          "durationSec": 0.7408314897288159,
          "pitchBend": 0.0
        },
        {
          "pitch": 74,
          "velocity": 25,
          "startBeat": 10.071400824843016,
          "durationBeat": 1.2634813827916065,
          "startSec": 8.392834020702514,
          "durationSec": 1.0529011523263387,
          "pitchBend": 0.0
        },
        {
          "pitch": 72,
          "velocity": 25,
          "startBeat": 11.334882207634623,
          "durationBeat": 1.2673602606561225,
          "startSec": 9.445735173028853,
          "durationSec": 1.0561335505467688,
          "pitchBend": 0.0
        },
        {
          "pitch": 74,
          "velocity": 25,
          "startBeat": 13.861844384393272,
          "durationBeat": 1.2751138951494296,
          "startSec": 11.551536986994394,
          "durationSec": 1.0625949126245247,
          "pitchBend": 0.0
        },
        {
          "pitch": 72,
          "velocity": 25,
          "startBeat": 15.136958279542702,
          "durationBeat": 1.2789874749333578,
          "startSec": 12.614131899618918,
          "durationSec": 1.0658228957777982,
          "pitchBend": 0.0
        },
        {
          "pitch": 74,
          "velocity": 27,
          "startBeat": 18.935149586681113,
          "durationBeat": 1.3551176214124943,
          "startSec": 15.779291322234261,
          "durationSec": 1.129264684510412,
          "pitchBend": 0.0
        },
        {
          "pitch": 72,
          "velocity": 28,
          "startBeat": 20.290267208093606,
          "durationBeat": 1.423891148499195,
          "startSec": 16.90855600674467,
          "durationSec": 1.1865759570826626,
          "pitchBend": 0.0
        },
        {
          "pitch": 76,
          "velocity": 30,
          "startBeat": 21.7141583565928,
          "durationBeat": 1.4930444223544097,
          "startSec": 18.095131963827335,
          "durationSec": 1.2442036852953415,
          "pitchBend": 0.0
        },
        {
          "pitch": 71,
          "velocity": 32,
          "startBeat": 25.21680469504974,
          "durationBeat": 0.7552735950639273,
          "startSec": 21.01400391254145,
          "durationSec": 0.6293946625532728,
          "pitchBend": 0.0
        },
        {
          "pitch": 69,
          "velocity": 34,
          "startBeat": 25.972078290113664,
          "durationBeat": 0.7575922790346196,
          "startSec": 21.64339857509472,
          "durationSec": 0.6313268991955163,
          "pitchBend": 0.0
        },
        {
          "pitch": 71,
          "velocity": 35,
          "startBeat": 27.482625128258775,
          "durationBeat": 0.7622271834173283,
          "startSec": 22.902187606882315,
          "durationSec": 0.6351893195144402,
          "pitchBend": 0.0
        },
        {
          "pitch": 74,
          "velocity": 37,
          "startBeat": 28.2448523116761,
          "durationBeat": 0.764542700344622,
          "startSec": 23.537376926396753,
          "durationSec": 0.6371189169538517,
          "pitchBend": 0.0
        },
        {
          "pitch": 69,
          "velocity": 39,
          "startBeat": 30.51530413024171,
          "durationBeat": 0.8100511583299697,
          "startSec": 25.42942010853476,
          "durationSec": 0.6750426319416414,
          "pitchBend": 0.0
        },
        {
          "pitch": 67,
          "velocity": 39,
          "startBeat": 31.32535528857168,
          "durationBeat": 0.8511620363812421,
          "startSec": 26.1044627404764,
          "durationSec": 0.7093016969843684,
          "pitchBend": 0.0
        },
        {
          "pitch": 69,
          "velocity": 40,
          "startBeat": 32.17651732495292,
          "durationBeat": 0.8924999163582856,
          "startSec": 26.813764437460765,
          "durationSec": 0.7437499302985714,
          "pitchBend": 0.0
        },
        {
          "pitch": 72,
          "velocity": 42,
          "startBeat": 34.57197180042169,
          "durationBeat": 0.43212831804977914,
          "startSec": 28.80997650035141,
          "durationSec": 0.3601069317081493,
          "pitchBend": 0.0
        },
        {
          "pitch": 69,
          "velocity": 43,
          "startBeat": 35.00410011847147,
          "durationBeat": 0.43345494857266853,
          "startSec": 29.17008343205956,
          "durationSec": 0.36121245714389044,
          "pitchBend": 0.0
        },
        {
          "pitch": 64,
          "velocity": 44,
          "startBeat": 35.86835655318478,
          "durationBeat": 0.4361068000981438,
          "startSec": 29.890297127653987,
          "durationSec": 0.3634223334151198,
          "pitchBend": 0.0
        },
        {
          "pitch": 62,
          "velocity": 45,
          "startBeat": 36.30446335328293,
          "durationBeat": 0.43743161860331414,
          "startSec": 30.253719461069107,
          "durationSec": 0.36452634883609514,
          "pitchBend": 0.0
        },
        {
          "pitch": 64,
          "velocity": 47,
          "startBeat": 37.60349794416753,
          "durationBeat": 0.4634691943040545,
          "startSec": 31.336248286806274,
          "durationSec": 0.3862243285867121,
          "pitchBend": 0.0
        },
        {
          "pitch": 62,
          "velocity": 48,
          "startBeat": 38.06696713847158,
          "durationBeat": 0.48699070320089644,
          "startSec": 31.722472615392988,
          "durationSec": 0.40582558600074703,
          "pitchBend": 0.0
        },
        {
          "pitch": 64,
          "velocity": 48,
          "startBeat": 38.55395784167248,
          "durationBeat": 0.5106420908079417,
          "startSec": 32.12829820139373,
          "durationSec": 0.42553507567328475,
          "pitchBend": 0.0
        },
        {
          "pitch": 62,
          "velocity": 51,
          "startBeat": 40.245401418621064,
          "durationBeat": 0.7318237922589625,
          "startSec": 33.53783451551755,
          "durationSec": 0.6098531602158022,
          "pitchBend": 0.0
        },
        {
          "pitch": 67,
          "velocity": 50,
          "startBeat": 40.97722521088003,
          "durationBeat": 0.7340704855202812,
          "startSec": 34.14768767573336,
          "durationSec": 0.6117254046002344,
          "pitchBend": 0.0
        },
        {
          "pitch": 62,
          "velocity": 52,
          "startBeat": 42.440872454343605,
          "durationBeat": 0.7385614849730351,
          "startSec": 35.36739371195301,
          "durationSec": 0.6154679041441959,
          "pitchBend": 0.0
        },
        {
          "pitch": 60,
          "velocity": 55,
          "startBeat": 43.17943393931664,
          "durationBeat": 0.7408051095216047,
          "startSec": 35.9828616160972,
          "durationSec": 0.6173375912680039,
          "pitchBend": 0.0
        },
        {
          "pitch": 62,
          "velocity": 57,
          "startBeat": 45.379392564724824,
          "durationBeat": 0.7849006167925505,
          "startSec": 37.816160470604025,
          "durationSec": 0.6540838473271254,
          "pitchBend": 0.0
        },
        {
          "pitch": 64,
          "velocity": 59,
          "startBeat": 46.16429318151737,
          "durationBeat": 0.8247350805884568,
          "startSec": 38.47024431793115,
          "durationSec": 0.687279233823714,
          "pitchBend": 0.0
        },
        {
          "pitch": 60,
          "velocity": 58,
          "startBeat": 46.989028262105826,
          "durationBeat": 0.8647894983338372,
          "startSec": 39.157523551754856,
          "durationSec": 0.7206579152781977,
          "pitchBend": 0.0
        },
        {
          "pitch": 60,
          "velocity": 61,
          "startBeat": 49.33339451838295,
          "durationBeat": 0.39117354677893307,
          "startSec": 41.111162098652464,
          "durationSec": 0.3259779556491109,
          "pitchBend": 0.0
        },
        {
          "pitch": 62,
          "velocity": 64,
          "startBeat": 49.72456806516188,
          "durationBeat": 0.3923744464775361,
          "startSec": 41.43714005430157,
          "durationSec": 0.32697870539794677,
          "pitchBend": 0.0
        },
        {
          "pitch": 64,
          "velocity": 65,
          "startBeat": 50.5069149764198,
          "durationBeat": 0.3947749699411055,
          "startSec": 42.089095813683166,
          "durationSec": 0.32897914161758796,
          "pitchBend": 0.0
        },
        {
          "pitch": 62,
          "velocity": 63,
          "startBeat": 50.901689946360904,
          "durationBeat": 0.39597422935517185,
          "startSec": 42.41807495530075,
          "durationSec": 0.3299785244626432,
          "pitchBend": 0.0
        },
        {
          "pitch": 60,
          "velocity": 67,
          "startBeat": 52.07760910527683,
          "durationBeat": 0.41954410527154323,
          "startSec": 43.39800758773069,
          "durationSec": 0.34962008772628606,
          "pitchBend": 0.0
        },
        {
          "pitch": 60,
          "velocity": 66,
          "startBeat": 52.49715321054837,
          "durationBeat": 0.44083637350865973,
          "startSec": 43.747627675456975,
          "durationSec": 0.36736364459054976,
          "pitchBend": 0.0
        },
        {
          "pitch": 62,
          "velocity": 68,
          "startBeat": 52.93798958405703,
          "durationBeat": 0.46224621125834736,
          "startSec": 44.11499132004752,
          "durationSec": 0.3852051760486228,
          "pitchBend": 0.0
        },
        {
          "pitch": 60,
          "velocity": 68,
          "startBeat": 54.54020826009575,
          "durationBeat": 0.25147414192412915,
          "startSec": 45.450173550079796,
          "durationSec": 0.2095617849367743,
          "pitchBend": 0.0
        },
        {
          "pitch": 62,
          "velocity": 71,
          "startBeat": 54.79168240201988,
          "durationBeat": 0.25224616555335944,
          "startSec": 45.65973533501657,
          "durationSec": 0.21020513796113288,
          "pitchBend": 0.0
        },
        {
          "pitch": 60,
          "velocity": 73,
          "startBeat": 55.29463056867278,
          "durationBeat": 0.2537893925510455,
          "startSec": 46.07885880722732,
          "durationSec": 0.21149116045920457,
          "pitchBend": 0.0
        },
        {
          "pitch": 62,
          "velocity": 70,
          "startBeat": 55.54841996122383,
          "durationBeat": 0.2545603616888619,
          "startSec": 46.290349967686524,
          "durationSec": 0.21213363474071828,
          "pitchBend": 0.0
        },
        {
          "pitch": 64,
          "velocity": 77,
          "startBeat": 56.30438432511177,
          "durationBeat": 0.2697127521563017,
          "startSec": 46.920320270926474,
          "durationSec": 0.22476062679691808,
          "pitchBend": 0.0
        },
        {
          "pitch": 60,
          "velocity": 76,
          "startBeat": 56.57409707726807,
          "durationBeat": 0.28340093462323435,
          "startSec": 47.145080897723396,
          "durationSec": 0.23616744551936197,
          "pitchBend": 0.0
        },
        {
          "pitch": 62,
          "velocity": 76,
          "startBeat": 56.85749801189131,
          "durationBeat": 0.2971646991241101,
          "startSec": 47.38124834324276,
          "durationSec": 0.24763724927009176,
          "pitchBend": 0.0
        },
        {
          "pitch": 64,
          "velocity": 79,
          "startBeat": 58.15536471211496,
          "durationBeat": 0.3859466292759191,
          "startSec": 48.46280392676247,
          "durationSec": 0.32162219106326595,
          "pitchBend": 0.0
        },
        {
          "pitch": 60,
          "velocity": 79,
          "startBeat": 58.54131134139088,
          "durationBeat": 0.3871314823790771,
          "startSec": 48.78442611782574,
          "durationSec": 0.3226095686492309,
          "pitchBend": 0.0
        },
        {
          "pitch": 60,
          "velocity": 80,
          "startBeat": 59.313204420078684,
          "durationBeat": 0.3894999297009661,
          "startSec": 49.42767035006557,
          "durationSec": 0.32458327475080506,
          "pitchBend": 0.0
        },
        {
          "pitch": 62,
          "velocity": 81,
          "startBeat": 59.70270434977965,
          "durationBeat": 0.39068316443730644,
          "startSec": 49.752253624816376,
          "durationSec": 0.3255693036977554,
          "pitchBend": 0.0
        },
        {
          "pitch": 66,
          "velocity": 84,
          "startBeat": 60.86291070683441,
          "durationBeat": 0.4139380962630419,
          "startSec": 50.719092255695344,
          "durationSec": 0.3449484135525349,
          "pitchBend": 0.0
        },
        {
          "pitch": 64,
          "velocity": 87,
          "startBeat": 61.27684880309745,
          "durationBeat": 0.4349458541327169,
          "startSec": 51.06404066924788,
          "durationSec": 0.36245487844393076,
          "pitchBend": 0.0
        },
        {
          "pitch": 60,
          "velocity": 87,
          "startBeat": 61.711794657230165,
          "durationBeat": 0.4560696105341334,
          "startSec": 51.42649554769181,
          "durationSec": 0.38005800877844453,
          "pitchBend": 0.0
        },
        {
          "pitch": 60,
          "velocity": 87,
          "startBeat": 63.30262586407303,
          "durationBeat": 0.6047011169610206,
          "startSec": 52.75218822006086,
          "durationSec": 0.5039175974675172,
          "pitchBend": 0.0
        },
        {
          "pitch": 62,
          "velocity": 89,
          "startBeat": 63.907326981034046,
          "durationBeat": 0.6065575446133583,
          "startSec": 53.25610581752837,
          "durationSec": 0.505464620511132,
          "pitchBend": 0.0
        },
        {
          "pitch": 60,
          "velocity": 93,
          "startBeat": 65.11672893314514,
          "durationBeat": 0.6102684274981152,
          "startSec": 54.26394077762095,
          "durationSec": 0.508557022915096,
          "pitchBend": 0.0
        },
        {
          "pitch": 62,
          "velocity": 90,
          "startBeat": 65.72699736064325,
          "durationBeat": 0.6121223194935822,
          "startSec": 54.772497800536044,
          "durationSec": 0.5101019329113186,
          "pitchBend": 0.0
        },
        {
          "pitch": 60,
          "velocity": 93,
          "startBeat": 67.54480849513232,
          "durationBeat": 0.6485581429551243,
          "startSec": 56.28734041261026,
          "durationSec": 0.5404651191292702,
          "pitchBend": 0.0
        },
        {
          "pitch": 64,
          "velocity": 91,
          "startBeat": 68.19336663808744,
          "durationBeat": 0.6814730946220743,
          "startSec": 56.827805531739536,
          "durationSec": 0.5678942455183953,
          "pitchBend": 0.0
        },
        {
          "pitch": 66,
          "velocity": 94,
          "startBeat": 68.87483973270952,
          "durationBeat": 0.714569792769986,
          "startSec": 57.39569977725793,
          "durationSec": 0.5954748273083217,
          "pitchBend": 0.0
        },
        {
          "pitch": 60,
          "velocity": 100,
          "startBeat": 70.94225393297725,
          "durationBeat": 0.32874058573892817,
          "startSec": 59.118544944147715,
          "durationSec": 0.2739504881157735,
          "pitchBend": 0.0
        },
        {
          "pitch": 62,
          "velocity": 100,
          "startBeat": 71.27099451871618,
          "durationBeat": 0.3297498167403169,
          "startSec": 59.39249543226349,
          "durationSec": 0.2747915139502641,
          "pitchBend": 0.0
        },
        {
          "pitch": 64,
          "velocity": 100,
          "startBeat": 71.92847553698994,
          "durationBeat": 0.33176720645389035,
          "startSec": 59.94039628082495,
          "durationSec": 0.27647267204490866,
          "pitchBend": 0.0
        },
        {
          "pitch": 60,
          "velocity": 101,
          "startBeat": 72.26024274344383,
          "durationBeat": 0.3327750589671276,
          "startSec": 60.21686895286986,
          "durationSec": 0.277312549139273,
          "pitchBend": 0.0
        },
        {
          "pitch": 60,
          "velocity": 102,
          "startBeat": 73.24848020547783,
          "durationBeat": 0.352583082485959,
          "startSec": 61.04040017123153,
          "durationSec": 0.29381923540496585,
          "pitchBend": 0.0
        },
        {
          "pitch": 62,
          "velocity": 103,
          "startBeat": 73.6010632879638,
          "durationBeat": 0.3704770141938099,
          "startSec": 61.3342194066365,
          "durationSec": 0.3087308451615083,
          "pitchBend": 0.0
        },
        {
          "pitch": 64,
          "velocity": 101,
          "startBeat": 73.9715403021576,
          "durationBeat": 0.388469750820209,
          "startSec": 61.642950251798005,
          "durationSec": 0.3237247923501742,
          "pitchBend": 0.0
        },
        {
          "pitch": 62,
          "velocity": 104,
          "startBeat": 75.43774125451125,
          "durationBeat": 0.5188809684838286,
          "startSec": 62.86478437875938,
          "durationSec": 0.4324008070698572,
          "pitchBend": 0.0
        },
        {
          "pitch": 60,
          "velocity": 106,
          "startBeat": 75.95662222299508,
          "durationBeat": 0.5204739289582628,
          "startSec": 63.297185185829235,
          "durationSec": 0.4337282741318857,
          "pitchBend": 0.0
        },
        {
          "pitch": 60,
          "velocity": 102,
          "startBeat": 76.99438391814687,
          "durationBeat": 0.5236581574161984,
          "startSec": 64.16198659845573,
          "durationSec": 0.436381797846832,
          "pitchBend": 0.0
        },
        {
          "pitch": 62,
          "velocity": 107,
          "startBeat": 77.51804207556306,
          "durationBeat": 0.5252489420982356,
          "startSec": 64.59836839630255,
          "durationSec": 0.43770745174852965,
          "pitchBend": 0.0
        },
        {
          "pitch": 60,
          "velocity": 107,
          "startBeat": 79.07786655004833,
          "durationBeat": 0.5565137352910178,
          "startSec": 65.89822212504028,
          "durationSec": 0.4637614460758482,
          "pitchBend": 0.0
        },
        {
          "pitch": 62,
          "velocity": 110,
          "startBeat": 79.63438028533935,
          "durationBeat": 0.5847573444385867,
          "startSec": 66.36198357111613,
          "durationSec": 0.48729778703215565,
          "pitchBend": 0.0
        },
        {
          "pitch": 60,
          "velocity": 111,
          "startBeat": 80.21913762977793,
          "durationBeat": 0.6131569063162149,
          "startSec": 66.84928135814827,
          "durationSec": 0.5109640885968457,
          "pitchBend": 0.0
        },
        {
          "pitch": 62,
          "velocity": 112,
          "startBeat": 82.09958230228767,
          "durationBeat": 0.3373691065937807,
          "startSec": 68.41631858523974,
          "durationSec": 0.28114092216148395,
          "pitchBend": 0.0
        },
        {
          "pitch": 67,
          "velocity": 111,
          "startBeat": 82.43695140888146,
          "durationBeat": 0.3384048270860343,
          "startSec": 68.69745950740122,
          "durationSec": 0.28200402257169527,
          "pitchBend": 0.0
        },
        {
          "pitch": 60,
          "velocity": 112,
          "startBeat": 83.11168946484374,
          "durationBeat": 0.3404751676367452,
          "startSec": 69.25974122070312,
          "durationSec": 0.2837293063639543,
          "pitchBend": 0.0
        },
        {
          "pitch": 62,
          "velocity": 114,
          "startBeat": 83.45216463248047,
          "durationBeat": 0.34150947345938915,
          "startSec": 69.54347052706707,
          "durationSec": 0.2845912278828243,
          "pitchBend": 0.0
        },
        {
          "pitch": 64,
          "velocity": 114,
          "startBeat": 84.46634056369234,
          "durationBeat": 0.361837402190537,
          "startSec": 70.38861713641029,
          "durationSec": 0.3015311684921142,
          "pitchBend": 0.0
        },
        {
          "pitch": 60,
          "velocity": 119,
          "startBeat": 84.82817796588287,
          "durationBeat": 0.3802009995545753,
          "startSec": 70.6901483049024,
          "durationSec": 0.31683416629547945,
          "pitchBend": 0.0
        },
        {
          "pitch": 60,
          "velocity": 115,
          "startBeat": 85.20837896543745,
          "durationBeat": 0.39866599518990625,
          "startSec": 71.00698247119787,
          "durationSec": 0.3322216626582552,
          "pitchBend": 0.0
        },
        {
          "pitch": 62,
          "velocity": 117,
          "startBeat": 86.69337818950359,
          "durationBeat": 0.5771276484762449,
          "startSec": 72.24448182458633,
          "durationSec": 0.4809397070635374,
          "pitchBend": 0.0
        },
        {
          "pitch": 64,
          "velocity": 119,
          "startBeat": 87.27050583797984,
          "durationBeat": 0.5788994257981462,
          "startSec": 72.72542153164987,
          "durationSec": 0.4824161881651219,
          "pitchBend": 0.0
        },
        {
          "pitch": 62,
          "velocity": 121,
          "startBeat": 88.42476086597155,
          "durationBeat": 0.582441097961435,
          "startSec": 73.68730072164296,
          "durationSec": 0.48536758163452914,
          "pitchBend": 0.0
        },
        {
          "pitch": 60,
          "velocity": 120,
          "startBeat": 89.00720196393299,
          "durationBeat": 0.5842104552486348,
          "startSec": 74.17266830327749,
          "durationSec": 0.486842046040529,
          "pitchBend": 0.0
        },
        {
          "pitch": 60,
          "velocity": 123,
          "startBeat": 90.74212362356876,
          "durationBeat": 0.6189848595367136,
          "startSec": 75.61843635297397,
          "durationSec": 0.5158207162805947,
          "pitchBend": 0.0
        },
        {
          "pitch": 62,
          "velocity": 127,
          "startBeat": 91.36110848310547,
          "durationBeat": 0.6503989385295271,
          "startSec": 76.13425706925456,
          "durationSec": 0.5419991154412727,
          "pitchBend": 0.0
        },
        {
          "pitch": 60,
          "velocity": 127,
          "startBeat": 92.011507421635,
          "durationBeat": 0.6819864766350068,
          "startSec": 76.67625618469584,
          "durationSec": 0.5683220638625057,
          "pitchBend": 0.0
        },
        {
          "pitch": 62,
          "velocity": 124,
          "startBeat": 94.01884950046357,
          "durationBeat": 0.29347251063335134,
          "startSec": 78.34904125038632,
          "durationSec": 0.24456042552779278,
          "pitchBend": 0.0
        },
        {
          "pitch": 60,
          "velocity": 127,
          "startBeat": 94.31232201109692,
          "durationBeat": 0.29437346892276006,
          "startSec": 78.5936016759141,
          "durationSec": 0.24531122410230005,
          "pitchBend": 0.0
        },
        {
          "pitch": 64,
          "velocity": 127,
          "startBeat": 94.89926689559562,
          "durationBeat": 0.29617442825011997,
          "startSec": 79.08272241299635,
          "durationSec": 0.24681202354176665,
          "pitchBend": 0.0
        },
        {
          "pitch": 66,
          "velocity": 125,
          "startBeat": 95.19544132384574,
          "durationBeat": 0.29707415593887815,
          "startSec": 79.32953443653813,
          "durationSec": 0.2475617966157318,
          "pitchBend": 0.0
        },
        {
          "pitch": 60,
          "velocity": 123,
          "startBeat": 96.07765831093649,
          "durationBeat": 0.3147571273909411,
          "startSec": 80.06471525911374,
          "durationSec": 0.26229760615911757,
          "pitchBend": 0.0
        },
        {
          "pitch": 62,
          "velocity": 126,
          "startBeat": 96.39241543832743,
          "durationBeat": 0.33073135537256043,
          "startSec": 80.32701286527286,
          "durationSec": 0.27560946281046705,
          "pitchBend": 0.0
        },
        {
          "pitch": 64,
          "velocity": 122,
          "startBeat": 96.7231467937,
          "durationBeat": 0.3467937882451095,
          "startSec": 80.60262232808333,
          "durationSec": 0.28899482353759126,
          "pitchBend": 0.0
        },
        {
          "pitch": 60,
          "velocity": 117,
          "startBeat": 98.11251199752104,
          "durationBeat": 0.5207099065746359,
          "startSec": 81.76042666460087,
          "durationSec": 0.4339249221455299,
          "pitchBend": 0.0
        },
        {
          "pitch": 60,
          "velocity": 122,
          "startBeat": 98.63322190409568,
          "durationBeat": 0.5223084818745616,
          "startSec": 82.19435158674641,
          "durationSec": 0.43525706822880134,
          "pitchBend": 0.0
        },
        {
          "pitch": 62,
          "velocity": 121,
          "startBeat": 99.67464147457673,
          "durationBeat": 0.525503934017832,
          "startSec": 83.06220122881395,
          "durationSec": 0.43791994501486003,
          "pitchBend": 0.0
        },
        {
          "pitch": 64,
          "velocity": 118,
          "startBeat": 100.20014540859457,
          "durationBeat": 0.5271003258561845,
          "startSec": 83.5001211738288,
          "durationSec": 0.43925027154682045,
          "pitchBend": 0.0
        },
        {
          "pitch": 62,
          "velocity": 117,
          "startBeat": 101.7654679116637,
          "durationBeat": 0.5584753203757538,
          "startSec": 84.80455659305309,
          "durationSec": 0.46539610031312817,
          "pitchBend": 0.0
        },
        {
          "pitch": 60,
          "velocity": 114,
          "startBeat": 102.32394323203945,
          "durationBeat": 0.586818481859464,
          "startSec": 85.26995269336622,
          "durationSec": 0.4890154015495533,
          "pitchBend": 0.0
        },
        {
          "pitch": 60,
          "velocity": 110,
          "startBeat": 102.91076171389892,
          "durationBeat": 0.6153181457713448,
          "startSec": 85.75896809491577,
          "durationSec": 0.5127651214761207,
          "pitchBend": 0.0
        },
        {
          "pitch": 62,
          "velocity": 114,
          "startBeat": 104.79519094827674,
          "durationBeat": 0.2873297854529302,
          "startSec": 87.32932579023063,
          "durationSec": 0.23944148787744185,
          "pitchBend": 0.0
        },
        {
          "pitch": 60,
          "velocity": 110,
          "startBeat": 105.08252073372967,
          "durationBeat": 0.28821188562455846,
          "startSec": 87.56876727810806,
          "durationSec": 0.24017657135379872,
          "pitchBend": 0.0
        },
        {
          "pitch": 62,
          "velocity": 113,
          "startBeat": 105.65718017073024,
          "durationBeat": 0.28997514875275743,
          "startSec": 88.0476501422752,
          "durationSec": 0.24164595729396454,
          "pitchBend": 0.0
        },
        {
          "pitch": 60,
          "velocity": 109,
          "startBeat": 105.947155319483,
          "durationBeat": 0.29085604408165566,
          "startSec": 88.28929609956917,
          "durationSec": 0.24238003673471306,
          "pitchBend": 0.0
        },
        {
          "pitch": 64,
          "velocity": 106,
          "startBeat": 106.81090646631668,
          "durationBeat": 0.30816889012139687,
          "startSec": 89.00908872193057,
          "durationSec": 0.2568074084344974,
          "pitchBend": 0.0
        },
        {
          "pitch": 67,
          "velocity": 110,
          "startBeat": 107.11907535643807,
          "durationBeat": 0.3238087587033957,
          "startSec": 89.26589613036506,
          "durationSec": 0.2698406322528298,
          "pitchBend": 0.0
        },
        {
          "pitch": 60,
          "velocity": 107,
          "startBeat": 107.44288411514147,
          "durationBeat": 0.33953498594410525,
          "startSec": 89.53573676261789,
          "durationSec": 0.28294582162008775,
          "pitchBend": 0.0
        },
        {
          "pitch": 62,
          "velocity": 105,
          "startBeat": 108.81886665246158,
          "durationBeat": 0.48501645813140826,
          "startSec": 90.68238887705132,
          "durationSec": 0.40418038177617355,
          "pitchBend": 0.0
        },
        {
          "pitch": 64,
          "velocity": 102,
          "startBeat": 109.30388311059299,
          "durationBeat": 0.48650545482656754,
          "startSec": 91.0865692588275,
          "durationSec": 0.40542121235547296,
          "pitchBend": 0.0
        },
        {
          "pitch": 60,
          "velocity": 103,
          "startBeat": 110.27391580082192,
          "durationBeat": 0.48948186618553846,
          "startSec": 91.89492983401827,
          "durationSec": 0.4079015551546154,
          "pitchBend": 0.0
        },
        {
          "pitch": 60,
          "velocity": 104,
          "startBeat": 110.76339766700747,
          "durationBeat": 0.4909688290903178,
          "startSec": 92.3028313891729,
          "durationSec": 0.40914069090859817,
          "pitchBend": 0.0
        },
        {
          "pitch": 62,
          "velocity": 100,
          "startBeat": 112.22142096690251,
          "durationBeat": 0.5201931409838205,
          "startSec": 93.5178508057521,
          "durationSec": 0.4334942841531838,
          "pitchBend": 0.0
        },
        {
          "pitch": 64,
          "velocity": 100,
          "startBeat": 112.74161410788633,
          "durationBeat": 0.5465934449179368,
          "startSec": 93.95134508990529,
          "durationSec": 0.45549453743161405,
          "pitchBend": 0.0
        },
        {
          "pitch": 62,
          "velocity": 100,
          "startBeat": 113.28820755280427,
          "durationBeat": 0.5731395234041442,
          "startSec": 94.4068396273369,
          "durationSec": 0.47761626950345354,
          "pitchBend": 0.0
        },
        {
          "pitch": 60,
          "velocity": 98,
          "startBeat": 115.09487431161077,
          "durationBeat": 0.3163250515695357,
          "startSec": 95.91239525967565,
          "durationSec": 0.2636042096412798,
          "pitchBend": 0.0
        },
        {
          "pitch": 60,
          "velocity": 97,
          "startBeat": 115.4111993631803,
          "durationBeat": 0.3172961669790988,
          "startSec": 96.17599946931692,
          "durationSec": 0.26441347248258235,
          "pitchBend": 0.0
        },
        {
          "pitch": 62,
          "velocity": 96,
          "startBeat": 116.04384931890134,
          "durationBeat": 0.3192373660061296,
          "startSec": 96.70320776575112,
          "durationSec": 0.2660311383384414,
          "pitchBend": 0.0
        },
        {
          "pitch": 60,
          "velocity": 94,
          "startBeat": 116.36308668490747,
          "durationBeat": 0.320207154988855,
          "startSec": 96.96923890408956,
          "durationSec": 0.26683929582404586,
          "pitchBend": 0.0
        },
        {
          "pitch": 62,
          "velocity": 92,
          "startBeat": 117.31400141738018,
          "durationBeat": 0.3392670895783155,
          "startSec": 97.76166784781682,
          "durationSec": 0.28272257464859624,
          "pitchBend": 0.0
        },
        {
          "pitch": 60,
          "velocity": 92,
          "startBeat": 117.6532685069585,
          "durationBeat": 0.3564852217950745,
          "startSec": 98.04439042246541,
          "durationSec": 0.2970710181625621,
          "pitchBend": 0.0
        },
        {
          "pitch": 64,
          "velocity": 90,
          "startBeat": 118.00975372875357,
          "durationBeat": 0.37379842736848906,
          "startSec": 98.34146144062798,
          "durationSec": 0.3114986894737409,
          "pitchBend": 0.0
        },
        {
          "pitch": 66,
          "velocity": 88,
          "startBeat": 119.44890594486398,
          "durationBeat": 0.5382005659965856,
          "startSec": 99.54075495405333,
          "durationSec": 0.44850047166382134,
          "pitchBend": 0.0
        },
        {
          "pitch": 60,
          "velocity": 89,
          "startBeat": 119.98710651086057,
          "durationBeat": 0.5398528374827722,
          "startSec": 99.98925542571715,
          "durationSec": 0.44987736456897687,
          "pitchBend": 0.0
        },
        {
          "pitch": 62,
          "velocity": 86,
          "startBeat": 121.06350739203428,
          "durationBeat": 0.5431556249473634,
          "startSec": 100.88625616002857,
          "durationSec": 0.45262968745613613,
          "pitchBend": 0.0
        },
        {
          "pitch": 64,
          "velocity": 84,
          "startBeat": 121.60666301698164,
          "durationBeat": 0.5448056396294453,
          "startSec": 101.3388858474847,
          "durationSec": 0.45400469969120444,
          "pitchBend": 0.0
        },
        {
          "pitch": 60,
          "velocity": 84,
          "startBeat": 123.22456474399297,
          "durationBeat": 0.5772345210380067,
          "startSec": 102.68713728666081,
          "durationSec": 0.48102876753167223,
          "pitchBend": 0.0
        },
        {
          "pitch": 60,
          "velocity": 84,
          "startBeat": 123.80179926503098,
          "durationBeat": 0.6065297300594986,
          "startSec": 103.16816605419248,
          "durationSec": 0.5054414417162488,
          "pitchBend": 0.0
        },
        {
          "pitch": 62,
          "velocity": 81,
          "startBeat": 124.40832899509047,
          "durationBeat": 0.635986698429829,
          "startSec": 103.67360749590873,
          "durationSec": 0.5299889153581909,
          "pitchBend": 0.0
        },
        {
          "pitch": 66,
          "velocity": 81,
          "startBeat": 126.33086373721125,
          "durationBeat": 0.2986271543500957,
          "startSec": 105.27571978100937,
          "durationSec": 0.24885596195841309,
          "pitchBend": 0.0
        },
        {
          "pitch": 64,
          "velocity": 78,
          "startBeat": 126.62949089156135,
          "durationBeat": 0.29954393735499657,
          "startSec": 105.5245757429678,
          "durationSec": 0.2496199477958305,
          "pitchBend": 0.0
        },
        {
          "pitch": 60,
          "velocity": 77,
          "startBeat": 127.22674506109131,
          "durationBeat": 0.30137652929987435,
          "startSec": 106.02228755090943,
          "durationSec": 0.2511471077498953,
          "pitchBend": 0.0
        },
        {
          "pitch": 60,
          "velocity": 76,
          "startBeat": 127.52812159039118,
          "durationBeat": 0.3022920600894669,
          "startSec": 106.27343465865933,
          "durationSec": 0.25191005007455575,
          "pitchBend": 0.0
        },
        {
          "pitch": 62,
          "velocity": 75,
          "startBeat": 128.42583411483056,
          "durationBeat": 0.3202856208280426,
          "startSec": 107.02152842902548,
          "durationSec": 0.26690468402336887,
          "pitchBend": 0.0
        },
        {
          "pitch": 60,
          "velocity": 74,
          "startBeat": 128.7461197356586,
          "durationBeat": 0.336540425187046,
          "startSec": 107.28843311304884,
          "durationSec": 0.28045035432253834,
          "pitchBend": 0.0
        },
        {
          "pitch": 62,
          "velocity": 74,
          "startBeat": 129.08266016084565,
          "durationBeat": 0.35288498369549687,
          "startSec": 107.56888346737138,
          "durationSec": 0.2940708197462474,
          "pitchBend": 0.0
        },
        {
          "pitch": 60,
          "velocity": 72,
          "startBeat": 130.4832553767161,
          "durationBeat": 0.17811457797823177,
          "startSec": 108.73604614726342,
          "durationSec": 0.1484288149818598,
          "pitchBend": 0.0
        },
        {
          "pitch": 62,
          "velocity": 70,
          "startBeat": 130.66136995469432,
          "durationBeat": 0.1786613883256394,
          "startSec": 108.88447496224528,
          "durationSec": 0.1488844902713662,
          "pitchBend": 0.0
        },
        {
          "pitch": 62,
          "velocity": 70,
          "startBeat": 131.01759902764346,
          "durationBeat": 0.17975442804461134,
          "startSec": 109.18133252303622,
          "durationSec": 0.14979535670384278,
          "pitchBend": 0.0
        },
        {
          "pitch": 60,
          "velocity": 69,
          "startBeat": 131.19735345568807,
          "durationBeat": 0.1803004915148582,
          "startSec": 109.33112787974007,
          "durationSec": 0.15025040959571517,
          "pitchBend": 0.0
        },
        {
          "pitch": 62,
          "velocity": 65,
          "startBeat": 131.7327893164499,
          "durationBeat": 0.19103265511951087,
          "startSec": 109.77732443037492,
          "durationSec": 0.15919387926625905,
          "pitchBend": 0.0
        },
        {
          "pitch": 64,
          "velocity": 65,
          "startBeat": 131.9238219715694,
          "durationBeat": 0.20072774672905822,
          "startSec": 109.93651830964117,
          "durationSec": 0.16727312227421517,
          "pitchBend": 0.0
        },
        {
          "pitch": 60,
          "velocity": 65,
          "startBeat": 132.12454971829845,
          "durationBeat": 0.21047637172369044,
          "startSec": 110.10379143191538,
          "durationSec": 0.1753969764364087,
          "pitchBend": 0.0
        },
        {
          "pitch": 60,
          "velocity": 61,
          "startBeat": 133.26259377464564,
          "durationBeat": 0.7546195217241343,
          "startSec": 111.05216147887137,
          "durationSec": 0.6288496014367786,
          "pitchBend": 0.0
        }
      ]
    },
    {
      "name": "bass_cello",
      "instrument": 42,
      "channel": 1,
      "notes": [
        {
          "pitch": 40,
          "velocity": 22,
          "startBeat": 0.0,
          "durationBeat": 2.0,
          "startSec": 0.0,
          "durationSec": 1.6666666666666667,
          "pitchBend": 0.0
        },
        {
          "pitch": 40,
          "velocity": 23,
          "startBeat": 4.0,
          "durationBeat": 2.03304529216285,
          "startSec": 3.3333333333333335,
          "durationSec": 1.6942044101357083,
          "pitchBend": 0.0
        },
        {
          "pitch": 40,
          "velocity": 24,
          "startBeat": 8.03304529216285,
          "durationBeat": 2.0659460856710345,
          "startSec": 6.6942044101357085,
          "durationSec": 1.7216217380591956,
          "pitchBend": 0.0
        },
        {
          "pitch": 40,
          "velocity": 26,
          "startBeat": 16.098991377833883,
          "durationBeat": 2.1307399704769097,
          "startSec": 13.415826148194903,
          "durationSec": 1.7756166420640915,
          "pitchBend": 0.0
        },
        {
          "pitch": 40,
          "velocity": 27,
          "startBeat": 20.229731348310793,
          "durationBeat": 2.162349734602342,
          "startSec": 16.85810945692566,
          "durationSec": 1.8019581121686183,
          "pitchBend": 0.0
        },
        {
          "pitch": 43,
          "velocity": 28,
          "startBeat": 24.392081082913133,
          "durationBeat": 2.3029120638785376,
          "startSec": 20.326734235760945,
          "durationSec": 1.919093386565448,
          "pitchBend": 0.0
        },
        {
          "pitch": 45,
          "velocity": 33,
          "startBeat": 35.294993146791676,
          "durationBeat": 2.2803575286758364,
          "startSec": 29.412494288993063,
          "durationSec": 1.900297940563197,
          "pitchBend": 0.0
        },
        {
          "pitch": 47,
          "velocity": 40,
          "startBeat": 39.57535067546751,
          "durationBeat": 2.3071063563448337,
          "startSec": 32.97945889622293,
          "durationSec": 1.9225886302873616,
          "pitchBend": 0.0
        },
        {
          "pitch": 48,
          "velocity": 46,
          "startBeat": 47.88245703181234,
          "durationBeat": 2.3564642241456983,
          "startSec": 39.90204752651029,
          "durationSec": 1.963720186788082,
          "pitchBend": 0.0
        },
        {
          "pitch": 50,
          "velocity": 51,
          "startBeat": 52.23892125595804,
          "durationBeat": 2.3788574348801674,
          "startSec": 43.53243437996503,
          "durationSec": 1.982381195733473,
          "pitchBend": 0.0
        },
        {
          "pitch": 54,
          "velocity": 54,
          "startBeat": 56.61777869083821,
          "durationBeat": 2.5195736983698356,
          "startSec": 47.18148224236518,
          "durationSec": 2.0996447486415297,
          "pitchBend": 0.0
        },
        {
          "pitch": 55,
          "velocity": 66,
          "startBeat": 67.73735238920804,
          "durationBeat": 2.4509956150664793,
          "startSec": 56.44779365767337,
          "durationSec": 2.042496345888733,
          "pitchBend": 0.0
        },
        {
          "pitch": 59,
          "velocity": 72,
          "startBeat": 72.18834800427452,
          "durationBeat": 2.4642770192448538,
          "startSec": 60.156956670228766,
          "durationSec": 2.053564182704045,
          "pitchBend": 0.0
        },
        {
          "pitch": 60,
          "velocity": 79,
          "startBeat": 80.65262502351936,
          "durationBeat": 2.484700132969665,
          "startSec": 67.2105208529328,
          "durationSec": 2.0705834441413877,
          "pitchBend": 0.0
        },
        {
          "pitch": 59,
          "velocity": 83,
          "startBeat": 85.13732515648903,
          "durationBeat": 2.491752537436191,
          "startSec": 70.94777096374087,
          "durationSec": 2.0764604478634925,
          "pitchBend": 0.0
        },
        {
          "pitch": 57,
          "velocity": 89,
          "startBeat": 89.62907769392521,
          "durationBeat": 2.62148736483566,
          "startSec": 74.69089807827102,
          "durationSec": 2.1845728040297168,
          "pitchBend": 0.0
        },
        {
          "pitch": 54,
          "velocity": 95,
          "startBeat": 100.85056505876086,
          "durationBeat": 2.498292246503335,
          "startSec": 84.04213754896739,
          "durationSec": 2.0819102054194456,
          "pitchBend": 0.0
        },
        {
          "pitch": 52,
          "velocity": 102,
          "startBeat": 105.3488573052642,
          "durationBeat": 2.4944739353007344,
          "startSec": 87.79071442105351,
          "durationSec": 2.0787282794172786,
          "pitchBend": 0.0
        },
        {
          "pitch": 52,
          "velocity": 108,
          "startBeat": 113.84333124056494,
          "durationBeat": 2.480376838068424,
          "startSec": 94.86944270047078,
          "durationSec": 2.0669806983903536,
          "pitchBend": 0.0
        },
        {
          "pitch": 54,
          "velocity": 112,
          "startBeat": 118.32370807863336,
          "durationBeat": 2.4701596950580806,
          "startSec": 98.60309006552781,
          "durationSec": 2.0584664125484005,
          "pitchBend": 0.0
        },
        {
          "pitch": 55,
          "velocity": 111,
          "startBeat": 122.79386777369145,
          "durationBeat": 2.580780996493905,
          "startSec": 102.32822314474288,
          "durationSec": 2.1506508304115877,
          "pitchBend": 0.0
        },
        {
          "pitch": 59,
          "velocity": 102,
          "startBeat": 133.97464877018533,
          "durationBeat": 2.409312407343346,
          "startSec": 111.64554064182111,
          "durationSec": 2.0077603394527883,
          "pitchBend": 0.0
        },
        {
          "pitch": 60,
          "velocity": 102,
          "startBeat": 138.38396117752868,
          "durationBeat": 2.3894386393810563,
          "startSec": 115.31996764794057,
          "durationSec": 1.9911988661508804,
          "pitchBend": 0.0
        },
        {
          "pitch": 60,
          "velocity": 92,
          "startBeat": 146.77339981690974,
          "durationBeat": 2.344676704559283,
          "startSec": 122.31116651409145,
          "durationSec": 1.9538972537994026,
          "pitchBend": 0.0
        },
        {
          "pitch": 59,
          "velocity": 91,
          "startBeat": 151.11807652146902,
          "durationBeat": 2.319984270251658,
          "startSec": 125.93173043455752,
          "durationSec": 1.9333202252097152,
          "pitchBend": 0.0
        },
        {
          "pitch": 57,
          "velocity": 86,
          "startBeat": 155.4380607917207,
          "durationBeat": 2.4085872574535485,
          "startSec": 129.53171732643392,
          "durationSec": 2.0071560478779573,
          "pitchBend": 0.0
        },
        {
          "pitch": 54,
          "velocity": 77,
          "startBeat": 166.44664804917423,
          "durationBeat": 2.208390930247645,
          "startSec": 138.70554004097852,
          "durationSec": 1.840325775206371,
          "pitchBend": 0.0
        },
        {
          "pitch": 55,
          "velocity": 76,
          "startBeat": 170.65503897942187,
          "durationBeat": 2.177896923461258,
          "startSec": 142.21253248285157,
          "durationSec": 1.8149141028843818,
          "pitchBend": 0.0
        },
        {
          "pitch": 54,
          "velocity": 68,
          "startBeat": 178.83293590288312,
          "durationBeat": 2.114711960023376,
          "startSec": 149.02744658573593,
          "durationSec": 1.762259966686147,
          "pitchBend": 0.0
        },
        {
          "pitch": 52,
          "velocity": 64,
          "startBeat": 182.9476478629065,
          "durationBeat": 2.082297295140367,
          "startSec": 152.45637321908876,
          "durationSec": 1.7352477459503057,
          "pitchBend": 0.0
        },
        {
          "pitch": 52,
          "velocity": 62,
          "startBeat": 187.02994515804687,
          "durationBeat": 2.151998903381493,
          "startSec": 155.85828763170574,
          "durationSec": 1.7933324194845777,
          "pitchBend": 0.0
        }
      ]
    }
  ],
  "formSections": [
    {
      "label": "A",
      "startBar": 0,
      "endBar": 4,
      "bars": 4
    },
    {
      "label": "B",
      "startBar": 4,
      "endBar": 8,
      "bars": 4
    },
    {
      "label": "C",
      "startBar": 8,
      "endBar": 16,
      "bars": 8
    },
    {
      "label": "D",
      "startBar": 16,
      "endBar": 28,
      "bars": 12
    },
    {
      "label": "E",
      "startBar": 28,
      "endBar": 48,
      "bars": 20
    }
  ]
}