{
  "meta": {
    "title": "Threshold",
    "tempo": 72,
    "durationBeats": 195.18194406142837,
    "durationSec": 162.65162005119032,
    "fps": 60,
    "audioFile": "track_01.wav"
  },
  "voices": [
    {
      "name": "melody_violin",
      "instrument": 40,
      "channel": 0,
      "notes": [
        {
          "pitch": 61,
          "velocity": 22,
          "startBeat": 0.0,
          "durationBeat": 0.75,
          "startSec": 0.0,
          "durationSec": 0.625,
          "pitchBend": 0.0
        },
        {
          "pitch": 61,
          "velocity": 22,
          "startBeat": 0.75,
          "durationBeat": 0.7523099361628572,
          "startSec": 0.625,
          "durationSec": 0.6269249468023811,
          "pitchBend": 0.0
        },
        {
          "pitch": 63,
          "velocity": 23,
          "startBeat": 1.5023099361628574,
          "durationBeat": 0.754619521724134,
          "startSec": 1.2519249468023812,
          "durationSec": 0.6288496014367784,
          "pitchBend": 0.0
        },
        {
          "pitch": 68,
          "velocity": 23,
          "startBeat": 3.0069294578869914,
          "durationBeat": 0.7592362389549032,
          "startSec": 2.5057745482391596,
          "durationSec": 0.6326968657957527,
          "pitchBend": 0.0
        },
        {
          "pitch": 70,
          "velocity": 23,
          "startBeat": 3.7661656968418944,
          "durationBeat": 0.7615426699001143,
          "startSec": 3.138471414034912,
          "durationSec": 0.6346188915834287,
          "pitchBend": 0.0
        },
        {
          "pitch": 75,
          "velocity": 24,
          "startBeat": 6.027708366742009,
          "durationBeat": 0.8068725547863047,
          "startSec": 5.023090305618341,
          "durationSec": 0.6723937956552539,
          "pitchBend": 0.0
        },
        {
          "pitch": 73,
          "velocity": 24,
          "startBeat": 6.834580921528314,
          "durationBeat": 0.8478221156401221,
          "startSec": 5.695484101273595,
          "durationSec": 0.7065184297001018,
          "pitchBend": 0.0
        },
        {
          "pitch": 73,
          "velocity": 24,
          "startBeat": 7.682403037168436,
          "durationBeat": 0.8889977876745789,
          "startSec": 6.402002530973697,
          "durationSec": 0.7408314897288159,
          "pitchBend": 0.0
        },
        {
          "pitch": 68,
          "velocity": 25,
          "startBeat": 10.071400824843016,
          "durationBeat": 1.240088710267928,
          "startSec": 8.392834020702514,
          "durationSec": 1.0334072585566068,
          "pitchBend": 0.0
        },
        {
          "pitch": 65,
          "velocity": 25,
          "startBeat": 11.311489535110944,
          "durationBeat": 1.2438957728125828,
          "startSec": 9.42624127925912,
          "durationSec": 1.0365798106771524,
          "pitchBend": 0.0
        },
        {
          "pitch": 66,
          "velocity": 25,
          "startBeat": 13.791666377724003,
          "durationBeat": 1.2515058529686116,
          "startSec": 11.493055314770002,
          "durationSec": 1.0429215441405097,
          "pitchBend": 0.0
        },
        {
          "pitch": 68,
          "velocity": 25,
          "startBeat": 15.043172230692614,
          "durationBeat": 1.2553077155237669,
          "startSec": 12.535976858910512,
          "durationSec": 1.0460897629364725,
          "pitchBend": 0.0
        },
        {
          "pitch": 70,
          "velocity": 26,
          "startBeat": 18.771042085817335,
          "durationBeat": 1.3300283536318096,
          "startSec": 15.642535071514446,
          "durationSec": 1.1083569613598414,
          "pitchBend": 0.0
        },
        {
          "pitch": 72,
          "velocity": 26,
          "startBeat": 20.101070439449146,
          "durationBeat": 1.3975285761654324,
          "startSec": 16.75089203287429,
          "durationSec": 1.164607146804527,
          "pitchBend": 0.0
        },
        {
          "pitch": 70,
          "velocity": 27,
          "startBeat": 21.498599015614577,
          "durationBeat": 1.4654015146621149,
          "startSec": 17.915499179678815,
          "durationSec": 1.2211679288850958,
          "pitchBend": 0.0
        },
        {
          "pitch": 70,
          "velocity": 29,
          "startBeat": 24.95028160007717,
          "durationBeat": 0.695473730238744,
          "startSec": 20.791901333397643,
          "durationSec": 0.5795614418656201,
          "pitchBend": 0.0
        },
        {
          "pitch": 72,
          "velocity": 29,
          "startBeat": 25.645755330315914,
          "durationBeat": 0.6976088290968017,
          "startSec": 21.371462775263264,
          "durationSec": 0.5813406909140014,
          "pitchBend": 0.0
        },
        {
          "pitch": 73,
          "velocity": 30,
          "startBeat": 27.036702466679394,
          "durationBeat": 0.7018767583100156,
          "startSec": 22.530585388899496,
          "durationSec": 0.5848972985916797,
          "pitchBend": 0.0
        },
        {
          "pitch": 75,
          "velocity": 33,
          "startBeat": 27.738579224989408,
          "durationBeat": 0.7040089408798557,
          "startSec": 23.115482687491173,
          "durationSec": 0.5866741173998797,
          "pitchBend": 0.0
        },
        {
          "pitch": 80,
          "velocity": 33,
          "startBeat": 29.82926478040262,
          "durationBeat": 0.7459142017539686,
          "startSec": 24.85772065033552,
          "durationSec": 0.6215951681283072,
          "pitchBend": 0.0
        },
        {
          "pitch": 82,
          "velocity": 34,
          "startBeat": 30.57517898215659,
          "durationBeat": 0.783770067361568,
          "startSec": 25.479315818463824,
          "durationSec": 0.6531417228013067,
          "pitchBend": 0.0
        },
        {
          "pitch": 82,
          "velocity": 36,
          "startBeat": 31.35894904951816,
          "durationBeat": 0.8218349616934856,
          "startSec": 26.132457541265133,
          "durationSec": 0.6848624680779046,
          "pitchBend": 0.0
        },
        {
          "pitch": 78,
          "velocity": 38,
          "startBeat": 33.62412231847832,
          "durationBeat": 0.3905416014560843,
          "startSec": 28.02010193206527,
          "durationSec": 0.3254513345467369,
          "pitchBend": 0.0
        },
        {
          "pitch": 75,
          "velocity": 37,
          "startBeat": 34.01466391993441,
          "durationBeat": 0.39174056108753813,
          "startSec": 28.345553266612008,
          "durationSec": 0.32645046757294843,
          "pitchBend": 0.0
        },
        {
          "pitch": 70,
          "velocity": 41,
          "startBeat": 34.795746940841134,
          "durationBeat": 0.3941372064780946,
          "startSec": 28.99645578403428,
          "durationSec": 0.32844767206507886,
          "pitchBend": 0.0
        },
        {
          "pitch": 66,
          "velocity": 41,
          "startBeat": 35.189884147319226,
          "durationBeat": 0.39533452847490996,
          "startSec": 29.324903456099356,
          "durationSec": 0.3294454403957583,
          "pitchBend": 0.0
        },
        {
          "pitch": 68,
          "velocity": 42,
          "startBeat": 36.36390359543252,
          "durationBeat": 0.41886632698812337,
          "startSec": 30.303252996193766,
          "durationSec": 0.3490552724901028,
          "pitchBend": 0.0
        },
        {
          "pitch": 70,
          "velocity": 43,
          "startBeat": 36.78276992242064,
          "durationBeat": 0.44012419732324437,
          "startSec": 30.652308268683868,
          "durationSec": 0.366770164436037,
          "pitchBend": 0.0
        },
        {
          "pitch": 75,
          "velocity": 42,
          "startBeat": 37.222894119743884,
          "durationBeat": 0.4614994472360492,
          "startSec": 31.019078433119905,
          "durationSec": 0.38458287269670766,
          "pitchBend": 0.0
        },
        {
          "pitch": 77,
          "velocity": 45,
          "startBeat": 38.823736026799125,
          "durationBeat": 0.3905416014560843,
          "startSec": 32.35311335566594,
          "durationSec": 0.3254513345467369,
          "pitchBend": 0.0
        },
        {
          "pitch": 73,
          "velocity": 46,
          "startBeat": 39.21427762825521,
          "durationBeat": 0.39174056108753813,
          "startSec": 32.678564690212674,
          "durationSec": 0.32645046757294843,
          "pitchBend": 0.0
        },
        {
          "pitch": 70,
          "velocity": 47,
          "startBeat": 39.99536064916194,
          "durationBeat": 0.3941372064780946,
          "startSec": 33.32946720763495,
          "durationSec": 0.32844767206507886,
          "pitchBend": 0.0
        },
        {
          "pitch": 72,
          "velocity": 47,
          "startBeat": 40.38949785564003,
          "durationBeat": 0.39533452847490996,
          "startSec": 33.65791487970003,
          "durationSec": 0.3294454403957583,
          "pitchBend": 0.0
        },
        {
          "pitch": 73,
          "velocity": 51,
          "startBeat": 41.92417484393413,
          "durationBeat": 0.8068725547863047,
          "startSec": 34.93681236994511,
          "durationSec": 0.6723937956552539,
          "pitchBend": 0.0
        },
        {
          "pitch": 75,
          "velocity": 51,
          "startBeat": 42.731047398720435,
          "durationBeat": 0.8478221156401221,
          "startSec": 35.60920616560036,
          "durationSec": 0.7065184297001018,
          "pitchBend": 0.0
        },
        {
          "pitch": 80,
          "velocity": 51,
          "startBeat": 43.578869514360555,
          "durationBeat": 0.8889977876745789,
          "startSec": 36.315724595300466,
          "durationSec": 0.7408314897288159,
          "pitchBend": 0.0
        },
        {
          "pitch": 82,
          "velocity": 56,
          "startBeat": 45.96786730203513,
          "durationBeat": 0.3905416014560843,
          "startSec": 38.30655608502928,
          "durationSec": 0.3254513345467369,
          "pitchBend": 0.0
        },
        {
          "pitch": 82,
          "velocity": 53,
          "startBeat": 46.35840890349122,
          "durationBeat": 0.39174056108753813,
          "startSec": 38.63200741957601,
          "durationSec": 0.32645046757294843,
          "pitchBend": 0.0
        },
        {
          "pitch": 80,
          "velocity": 57,
          "startBeat": 47.139491924397944,
          "durationBeat": 0.3941372064780946,
          "startSec": 39.28290993699829,
          "durationSec": 0.32844767206507886,
          "pitchBend": 0.0
        },
        {
          "pitch": 78,
          "velocity": 57,
          "startBeat": 47.53362913087604,
          "durationBeat": 0.39533452847490996,
          "startSec": 39.61135760906337,
          "durationSec": 0.3294454403957583,
          "pitchBend": 0.0
        },
        {
          "pitch": 73,
          "velocity": 59,
          "startBeat": 49.06830611917014,
          "durationBeat": 0.8068725547863047,
          "startSec": 40.89025509930845,
          "durationSec": 0.6723937956552539,
          "pitchBend": 0.0
        },
        {
          "pitch": 70,
          "velocity": 58,
          "startBeat": 49.87517867395644,
          "durationBeat": 0.8478221156401221,
          "startSec": 41.5626488949637,
          "durationSec": 0.7065184297001018,
          "pitchBend": 0.0
        },
        {
          "pitch": 72,
          "velocity": 61,
          "startBeat": 50.72300078959656,
          "durationBeat": 0.8889977876745789,
          "startSec": 42.269167324663805,
          "durationSec": 0.7408314897288159,
          "pitchBend": 0.0
        },
        {
          "pitch": 73,
          "velocity": 65,
          "startBeat": 53.11199857727114,
          "durationBeat": 0.3905416014560843,
          "startSec": 44.25999881439262,
          "durationSec": 0.3254513345467369,
          "pitchBend": 0.0
        },
        {
          "pitch": 78,
          "velocity": 66,
          "startBeat": 53.50254017872722,
          "durationBeat": 0.39174056108753813,
          "startSec": 44.58545014893935,
          "durationSec": 0.32645046757294843,
          "pitchBend": 0.0
        },
        {
          "pitch": 80,
          "velocity": 64,
          "startBeat": 54.28362319963395,
          "durationBeat": 0.3941372064780946,
          "startSec": 45.236352666361626,
          "durationSec": 0.32844767206507886,
          "pitchBend": 0.0
        },
        {
          "pitch": 77,
          "velocity": 66,
          "startBeat": 54.67776040611204,
          "durationBeat": 0.39533452847490996,
          "startSec": 45.56480033842671,
          "durationSec": 0.3294454403957583,
          "pitchBend": 0.0
        },
        {
          "pitch": 75,
          "velocity": 70,
          "startBeat": 56.212437394406145,
          "durationBeat": 0.8068725547863047,
          "startSec": 46.843697828671786,
          "durationSec": 0.6723937956552539,
          "pitchBend": 0.0
        },
        {
          "pitch": 77,
          "velocity": 72,
          "startBeat": 57.01930994919245,
          "durationBeat": 0.8478221156401221,
          "startSec": 47.51609162432704,
          "durationSec": 0.7065184297001018,
          "pitchBend": 0.0
        },
        {
          "pitch": 80,
          "velocity": 69,
          "startBeat": 57.86713206483257,
          "durationBeat": 0.8889977876745789,
          "startSec": 48.22261005402714,
          "durationSec": 0.7408314897288159,
          "pitchBend": 0.0
        },
        {
          "pitch": 82,
          "velocity": 74,
          "startBeat": 60.256129852507144,
          "durationBeat": 0.3905416014560843,
          "startSec": 50.213441543755955,
          "durationSec": 0.3254513345467369,
          "pitchBend": 0.0
        },
        {
          "pitch": 82,
          "velocity": 74,
          "startBeat": 60.64667145396323,
          "durationBeat": 0.39174056108753813,
          "startSec": 50.53889287830269,
          "durationSec": 0.32645046757294843,
          "pitchBend": 0.0
        },
        {
          "pitch": 82,
          "velocity": 75,
          "startBeat": 61.42775447486996,
          "durationBeat": 0.3941372064780946,
          "startSec": 51.189795395724964,
          "durationSec": 0.32844767206507886,
          "pitchBend": 0.0
        },
        {
          "pitch": 82,
          "velocity": 77,
          "startBeat": 61.82189168134805,
          "durationBeat": 0.39533452847490996,
          "startSec": 51.518243067790046,
          "durationSec": 0.3294454403957583,
          "pitchBend": 0.0
        },
        {
          "pitch": 78,
          "velocity": 82,
          "startBeat": 63.35656866964215,
          "durationBeat": 0.8068725547863047,
          "startSec": 52.797140558035125,
          "durationSec": 0.6723937956552539,
          "pitchBend": 0.0
        },
        {
          "pitch": 75,
          "velocity": 78,
          "startBeat": 64.16344122442845,
          "durationBeat": 0.8478221156401221,
          "startSec": 53.46953435369038,
          "durationSec": 0.7065184297001018,
          "pitchBend": 0.0
        },
        {
          "pitch": 70,
          "velocity": 82,
          "startBeat": 65.01126334006858,
          "durationBeat": 0.8889977876745789,
          "startSec": 54.17605278339049,
          "durationSec": 0.7408314897288159,
          "pitchBend": 0.0
        },
        {
          "pitch": 66,
          "velocity": 83,
          "startBeat": 67.40026112774316,
          "durationBeat": 0.3905416014560843,
          "startSec": 56.16688427311931,
          "durationSec": 0.3254513345467369,
          "pitchBend": 0.0
        },
        {
          "pitch": 68,
          "velocity": 84,
          "startBeat": 67.79080272919924,
          "durationBeat": 0.39174056108753813,
          "startSec": 56.492335607666035,
          "durationSec": 0.32645046757294843,
          "pitchBend": 0.0
        },
        {
          "pitch": 70,
          "velocity": 89,
          "startBeat": 68.57188575010598,
          "durationBeat": 0.3941372064780946,
          "startSec": 57.14323812508832,
          "durationSec": 0.32844767206507886,
          "pitchBend": 0.0
        },
        {
          "pitch": 72,
          "velocity": 87,
          "startBeat": 68.96602295658407,
          "durationBeat": 0.39533452847490996,
          "startSec": 57.47168579715339,
          "durationSec": 0.3294454403957583,
          "pitchBend": 0.0
        },
        {
          "pitch": 75,
          "velocity": 89,
          "startBeat": 70.50069994487816,
          "durationBeat": 0.8068725547863047,
          "startSec": 58.75058328739847,
          "durationSec": 0.6723937956552539,
          "pitchBend": 0.0
        },
        {
          "pitch": 72,
          "velocity": 91,
          "startBeat": 71.30757249966447,
          "durationBeat": 0.8478221156401221,
          "startSec": 59.42297708305373,
          "durationSec": 0.7065184297001018,
          "pitchBend": 0.0
        },
        {
          "pitch": 70,
          "velocity": 94,
          "startBeat": 72.1553946153046,
          "durationBeat": 0.8889977876745789,
          "startSec": 60.129495512753834,
          "durationSec": 0.7408314897288159,
          "pitchBend": 0.0
        },
        {
          "pitch": 72,
          "velocity": 94,
          "startBeat": 74.54439240297918,
          "durationBeat": 0.3905416014560843,
          "startSec": 62.120327002482654,
          "durationSec": 0.3254513345467369,
          "pitchBend": 0.0
        },
        {
          "pitch": 73,
          "velocity": 98,
          "startBeat": 74.93493400443526,
          "durationBeat": 0.39174056108753813,
          "startSec": 62.44577833702939,
          "durationSec": 0.32645046757294843,
          "pitchBend": 0.0
        },
        {
          "pitch": 75,
          "velocity": 95,
          "startBeat": 75.716017025342,
          "durationBeat": 0.3941372064780946,
          "startSec": 63.09668085445167,
          "durationSec": 0.32844767206507886,
          "pitchBend": 0.0
        },
        {
          "pitch": 80,
          "velocity": 94,
          "startBeat": 76.11015423182009,
          "durationBeat": 0.39533452847490996,
          "startSec": 63.425128526516744,
          "durationSec": 0.3294454403957583,
          "pitchBend": 0.0
        },
        {
          "pitch": 82,
          "velocity": 100,
          "startBeat": 77.64483122011418,
          "durationBeat": 0.8068725547863047,
          "startSec": 64.70402601676183,
          "durationSec": 0.6723937956552539,
          "pitchBend": 0.0
        },
        {
          "pitch": 82,
          "velocity": 96,
          "startBeat": 78.4517037749005,
          "durationBeat": 0.8478221156401221,
          "startSec": 65.37641981241708,
          "durationSec": 0.7065184297001018,
          "pitchBend": 0.0
        },
        {
          "pitch": 80,
          "velocity": 100,
          "startBeat": 79.29952589054062,
          "durationBeat": 0.8889977876745789,
          "startSec": 66.0829382421172,
          "durationSec": 0.7408314897288159,
          "pitchBend": 0.0
        },
        {
          "pitch": 78,
          "velocity": 103,
          "startBeat": 81.6885236782152,
          "durationBeat": 0.3905416014560843,
          "startSec": 68.07376973184601,
          "durationSec": 0.3254513345467369,
          "pitchBend": 0.0
        },
        {
          "pitch": 73,
          "velocity": 105,
          "startBeat": 82.07906527967128,
          "durationBeat": 0.39174056108753813,
          "startSec": 68.39922106639274,
          "durationSec": 0.32645046757294843,
          "pitchBend": 0.0
        },
        {
          "pitch": 68,
          "velocity": 101,
          "startBeat": 82.86014830057802,
          "durationBeat": 0.3941372064780946,
          "startSec": 69.05012358381502,
          "durationSec": 0.32844767206507886,
          "pitchBend": 0.0
        },
        {
          "pitch": 68,
          "velocity": 103,
          "startBeat": 83.25428550705611,
          "durationBeat": 0.39533452847490996,
          "startSec": 69.37857125588009,
          "durationSec": 0.3294454403957583,
          "pitchBend": 0.0
        },
        {
          "pitch": 70,
          "velocity": 108,
          "startBeat": 84.7889624953502,
          "durationBeat": 0.8068725547863047,
          "startSec": 70.65746874612518,
          "durationSec": 0.6723937956552539,
          "pitchBend": 0.0
        },
        {
          "pitch": 75,
          "velocity": 109,
          "startBeat": 85.59583505013651,
          "durationBeat": 0.8478221156401221,
          "startSec": 71.32986254178043,
          "durationSec": 0.7065184297001018,
          "pitchBend": 0.0
        },
        {
          "pitch": 77,
          "velocity": 111,
          "startBeat": 86.44365716577664,
          "durationBeat": 0.8889977876745789,
          "startSec": 72.03638097148054,
          "durationSec": 0.7408314897288159,
          "pitchBend": 0.0
        },
        {
          "pitch": 73,
          "velocity": 109,
          "startBeat": 88.83265495345123,
          "durationBeat": 0.3905416014560843,
          "startSec": 74.02721246120936,
          "durationSec": 0.3254513345467369,
          "pitchBend": 0.0
        },
        {
          "pitch": 66,
          "velocity": 110,
          "startBeat": 89.2231965549073,
          "durationBeat": 0.39174056108753813,
          "startSec": 74.35266379575609,
          "durationSec": 0.32645046757294843,
          "pitchBend": 0.0
        },
        {
          "pitch": 68,
          "velocity": 114,
          "startBeat": 90.00427957581404,
          "durationBeat": 0.3941372064780946,
          "startSec": 75.00356631317837,
          "durationSec": 0.32844767206507886,
          "pitchBend": 0.0
        },
        {
          "pitch": 73,
          "velocity": 116,
          "startBeat": 90.39841678229213,
          "durationBeat": 0.39533452847490996,
          "startSec": 75.33201398524345,
          "durationSec": 0.3294454403957583,
          "pitchBend": 0.0
        },
        {
          "pitch": 75,
          "velocity": 115,
          "startBeat": 91.93309377058623,
          "durationBeat": 0.8068725547863047,
          "startSec": 76.61091147548852,
          "durationSec": 0.6723937956552539,
          "pitchBend": 0.0
        },
        {
          "pitch": 80,
          "velocity": 116,
          "startBeat": 92.73996632537254,
          "durationBeat": 0.8478221156401221,
          "startSec": 77.28330527114379,
          "durationSec": 0.7065184297001018,
          "pitchBend": 0.0
        },
        {
          "pitch": 82,
          "velocity": 117,
          "startBeat": 93.58778844101266,
          "durationBeat": 0.8889977876745789,
          "startSec": 77.98982370084389,
          "durationSec": 0.7408314897288159,
          "pitchBend": 0.0
        },
        {
          "pitch": 82,
          "velocity": 119,
          "startBeat": 95.97678622868725,
          "durationBeat": 0.3905416014560843,
          "startSec": 79.9806551905727,
          "durationSec": 0.3254513345467369,
          "pitchBend": 0.0
        },
        {
          "pitch": 78,
          "velocity": 118,
          "startBeat": 96.36732783014332,
          "durationBeat": 0.39174056108753813,
          "startSec": 80.30610652511945,
          "durationSec": 0.32645046757294843,
          "pitchBend": 0.0
        },
        {
          "pitch": 75,
          "velocity": 122,
          "startBeat": 97.14841085105006,
          "durationBeat": 0.3941372064780946,
          "startSec": 80.95700904254171,
          "durationSec": 0.32844767206507886,
          "pitchBend": 0.0
        },
        {
          "pitch": 70,
          "velocity": 122,
          "startBeat": 97.54254805752815,
          "durationBeat": 0.39533452847490996,
          "startSec": 81.2854567146068,
          "durationSec": 0.3294454403957583,
          "pitchBend": 0.0
        },
        {
          "pitch": 66,
          "velocity": 122,
          "startBeat": 99.07722504582225,
          "durationBeat": 0.8068725547863047,
          "startSec": 82.56435420485188,
          "durationSec": 0.6723937956552539,
          "pitchBend": 0.0
        },
        {
          "pitch": 68,
          "velocity": 125,
          "startBeat": 99.88409760060856,
          "durationBeat": 0.8478221156401221,
          "startSec": 83.23674800050713,
          "durationSec": 0.7065184297001018,
          "pitchBend": 0.0
        },
        {
          "pitch": 70,
          "velocity": 126,
          "startBeat": 100.73191971624868,
          "durationBeat": 0.8889977876745789,
          "startSec": 83.94326643020725,
          "durationSec": 0.7408314897288159,
          "pitchBend": 0.0
        },
        {
          "pitch": 75,
          "velocity": 127,
          "startBeat": 103.12091750392327,
          "durationBeat": 0.3905416014560843,
          "startSec": 85.93409791993606,
          "durationSec": 0.3254513345467369,
          "pitchBend": 0.0
        },
        {
          "pitch": 78,
          "velocity": 125,
          "startBeat": 103.51145910537934,
          "durationBeat": 0.39174056108753813,
          "startSec": 86.25954925448279,
          "durationSec": 0.32645046757294843,
          "pitchBend": 0.0
        },
        {
          "pitch": 75,
          "velocity": 123,
          "startBeat": 104.29254212628608,
          "durationBeat": 0.3941372064780946,
          "startSec": 86.91045177190507,
          "durationSec": 0.32844767206507886,
          "pitchBend": 0.0
        },
        {
          "pitch": 68,
          "velocity": 121,
          "startBeat": 104.68667933276417,
          "durationBeat": 0.39533452847490996,
          "startSec": 87.23889944397014,
          "durationSec": 0.3294454403957583,
          "pitchBend": 0.0
        },
        {
          "pitch": 70,
          "velocity": 122,
          "startBeat": 106.22135632105827,
          "durationBeat": 0.8068725547863047,
          "startSec": 88.51779693421523,
          "durationSec": 0.6723937956552539,
          "pitchBend": 0.0
        },
        {
          "pitch": 77,
          "velocity": 123,
          "startBeat": 107.02822887584458,
          "durationBeat": 0.8478221156401221,
          "startSec": 89.19019072987048,
          "durationSec": 0.7065184297001018,
          "pitchBend": 0.0
        },
        {
          "pitch": 75,
          "velocity": 123,
          "startBeat": 107.8760509914847,
          "durationBeat": 0.8889977876745789,
          "startSec": 89.89670915957059,
          "durationSec": 0.7408314897288159,
          "pitchBend": 0.0
        },
        {
          "pitch": 82,
          "velocity": 121,
          "startBeat": 110.26504877915929,
          "durationBeat": 0.3905416014560843,
          "startSec": 91.88754064929941,
          "durationSec": 0.3254513345467369,
          "pitchBend": 0.0
        },
        {
          "pitch": 80,
          "velocity": 118,
          "startBeat": 110.65559038061537,
          "durationBeat": 0.39174056108753813,
          "startSec": 92.21299198384614,
          "durationSec": 0.32645046757294843,
          "pitchBend": 0.0
        },
        {
          "pitch": 82,
          "velocity": 117,
          "startBeat": 111.4366734015221,
          "durationBeat": 0.3941372064780946,
          "startSec": 92.86389450126842,
          "durationSec": 0.32844767206507886,
          "pitchBend": 0.0
        },
        {
          "pitch": 80,
          "velocity": 120,
          "startBeat": 111.83081060800019,
          "durationBeat": 0.39533452847490996,
          "startSec": 93.1923421733335,
          "durationSec": 0.3294454403957583,
          "pitchBend": 0.0
        },
        {
          "pitch": 78,
          "velocity": 112,
          "startBeat": 113.36548759629429,
          "durationBeat": 0.8068725547863047,
          "startSec": 94.47123966357857,
          "durationSec": 0.6723937956552539,
          "pitchBend": 0.0
        },
        {
          "pitch": 73,
          "velocity": 116,
          "startBeat": 114.1723601510806,
          "durationBeat": 0.8478221156401221,
          "startSec": 95.14363345923384,
          "durationSec": 0.7065184297001018,
          "pitchBend": 0.0
        },
        {
          "pitch": 70,
          "velocity": 115,
          "startBeat": 115.02018226672072,
          "durationBeat": 0.8889977876745789,
          "startSec": 95.85015188893394,
          "durationSec": 0.7408314897288159,
          "pitchBend": 0.0
        },
        {
          "pitch": 72,
          "velocity": 113,
          "startBeat": 117.4091800543953,
          "durationBeat": 0.3905416014560843,
          "startSec": 97.84098337866276,
          "durationSec": 0.3254513345467369,
          "pitchBend": 0.0
        },
        {
          "pitch": 73,
          "velocity": 113,
          "startBeat": 117.79972165585139,
          "durationBeat": 0.39174056108753813,
          "startSec": 98.1664347132095,
          "durationSec": 0.32645046757294843,
          "pitchBend": 0.0
        },
        {
          "pitch": 77,
          "velocity": 111,
          "startBeat": 118.58080467675812,
          "durationBeat": 0.3941372064780946,
          "startSec": 98.81733723063176,
          "durationSec": 0.32844767206507886,
          "pitchBend": 0.0
        },
        {
          "pitch": 78,
          "velocity": 108,
          "startBeat": 118.97494188323621,
          "durationBeat": 0.39533452847490996,
          "startSec": 99.14578490269685,
          "durationSec": 0.3294454403957583,
          "pitchBend": 0.0
        },
        {
          "pitch": 75,
          "velocity": 106,
          "startBeat": 120.50961887153031,
          "durationBeat": 0.8068725547863047,
          "startSec": 100.42468239294193,
          "durationSec": 0.6723937956552539,
          "pitchBend": 0.0
        },
        {
          "pitch": 73,
          "velocity": 108,
          "startBeat": 121.31649142631662,
          "durationBeat": 0.8478221156401221,
          "startSec": 101.09707618859719,
          "durationSec": 0.7065184297001018,
          "pitchBend": 0.0
        },
        {
          "pitch": 75,
          "velocity": 109,
          "startBeat": 122.16431354195674,
          "durationBeat": 0.8889977876745789,
          "startSec": 101.8035946182973,
          "durationSec": 0.7408314897288159,
          "pitchBend": 0.0
        },
        {
          "pitch": 78,
          "velocity": 103,
          "startBeat": 124.55331132963133,
          "durationBeat": 0.3905416014560843,
          "startSec": 103.79442610802612,
          "durationSec": 0.3254513345467369,
          "pitchBend": 0.0
        },
        {
          "pitch": 80,
          "velocity": 105,
          "startBeat": 124.9438529310874,
          "durationBeat": 0.39174056108753813,
          "startSec": 104.11987744257284,
          "durationSec": 0.32645046757294843,
          "pitchBend": 0.0
        },
        {
          "pitch": 82,
          "velocity": 105,
          "startBeat": 125.72493595199414,
          "durationBeat": 0.3941372064780946,
          "startSec": 104.77077995999512,
          "durationSec": 0.32844767206507886,
          "pitchBend": 0.0
        },
        {
          "pitch": 82,
          "velocity": 103,
          "startBeat": 126.11907315847223,
          "durationBeat": 0.39533452847490996,
          "startSec": 105.09922763206019,
          "durationSec": 0.3294454403957583,
          "pitchBend": 0.0
        },
        {
          "pitch": 82,
          "velocity": 100,
          "startBeat": 127.65375014676633,
          "durationBeat": 0.8068725547863047,
          "startSec": 106.37812512230528,
          "durationSec": 0.6723937956552539,
          "pitchBend": 0.0
        },
        {
          "pitch": 78,
          "velocity": 100,
          "startBeat": 128.46062270155264,
          "durationBeat": 0.8478221156401221,
          "startSec": 107.05051891796053,
          "durationSec": 0.7065184297001018,
          "pitchBend": 0.0
        },
        {
          "pitch": 75,
          "velocity": 98,
          "startBeat": 129.30844481719276,
          "durationBeat": 0.8889977876745789,
          "startSec": 107.75703734766064,
          "durationSec": 0.7408314897288159,
          "pitchBend": 0.0
        },
        {
          "pitch": 70,
          "velocity": 98,
          "startBeat": 131.69744260486735,
          "durationBeat": 0.3905416014560843,
          "startSec": 109.74786883738946,
          "durationSec": 0.3254513345467369,
          "pitchBend": 0.0
        },
        {
          "pitch": 66,
          "velocity": 96,
          "startBeat": 132.08798420632343,
          "durationBeat": 0.39174056108753813,
          "startSec": 110.07332017193619,
          "durationSec": 0.32645046757294843,
          "pitchBend": 0.0
        },
        {
          "pitch": 68,
          "velocity": 95,
          "startBeat": 132.86906722723015,
          "durationBeat": 0.3941372064780946,
          "startSec": 110.72422268935846,
          "durationSec": 0.32844767206507886,
          "pitchBend": 0.0
        },
        {
          "pitch": 70,
          "velocity": 93,
          "startBeat": 133.26320443370824,
          "durationBeat": 0.39533452847490996,
          "startSec": 111.05267036142354,
          "durationSec": 0.3294454403957583,
          "pitchBend": 0.0
        },
        {
          "pitch": 75,
          "velocity": 92,
          "startBeat": 134.79788142200232,
          "durationBeat": 0.8068725547863047,
          "startSec": 112.33156785166861,
          "durationSec": 0.6723937956552539,
          "pitchBend": 0.0
        },
        {
          "pitch": 77,
          "velocity": 89,
          "startBeat": 135.60475397678863,
          "durationBeat": 0.8478221156401221,
          "startSec": 113.00396164732386,
          "durationSec": 0.7065184297001018,
          "pitchBend": 0.0
        },
        {
          "pitch": 73,
          "velocity": 91,
          "startBeat": 136.45257609242876,
          "durationBeat": 0.8889977876745789,
          "startSec": 113.71048007702397,
          "durationSec": 0.7408314897288159,
          "pitchBend": 0.0
        },
        {
          "pitch": 70,
          "velocity": 86,
          "startBeat": 138.84157388010334,
          "durationBeat": 0.3905416014560843,
          "startSec": 115.70131156675279,
          "durationSec": 0.3254513345467369,
          "pitchBend": 0.0
        },
        {
          "pitch": 72,
          "velocity": 89,
          "startBeat": 139.23211548155942,
          "durationBeat": 0.39174056108753813,
          "startSec": 116.02676290129952,
          "durationSec": 0.32645046757294843,
          "pitchBend": 0.0
        },
        {
          "pitch": 73,
          "velocity": 85,
          "startBeat": 140.01319850246614,
          "durationBeat": 0.3941372064780946,
          "startSec": 116.67766541872179,
          "durationSec": 0.32844767206507886,
          "pitchBend": 0.0
        },
        {
          "pitch": 75,
          "velocity": 85,
          "startBeat": 140.40733570894423,
          "durationBeat": 0.39533452847490996,
          "startSec": 117.00611309078687,
          "durationSec": 0.3294454403957583,
          "pitchBend": 0.0
        },
        {
          "pitch": 80,
          "velocity": 83,
          "startBeat": 141.9420126972383,
          "durationBeat": 0.8068725547863047,
          "startSec": 118.28501058103193,
          "durationSec": 0.6723937956552539,
          "pitchBend": 0.0
        },
        {
          "pitch": 82,
          "velocity": 80,
          "startBeat": 142.74888525202462,
          "durationBeat": 0.8478221156401221,
          "startSec": 118.9574043766872,
          "durationSec": 0.7065184297001018,
          "pitchBend": 0.0
        },
        {
          "pitch": 82,
          "velocity": 82,
          "startBeat": 143.59670736766475,
          "durationBeat": 0.8889977876745789,
          "startSec": 119.66392280638729,
          "durationSec": 0.7408314897288159,
          "pitchBend": 0.0
        },
        {
          "pitch": 80,
          "velocity": 78,
          "startBeat": 145.98570515533933,
          "durationBeat": 0.3905416014560843,
          "startSec": 121.65475429611611,
          "durationSec": 0.3254513345467369,
          "pitchBend": 0.0
        },
        {
          "pitch": 78,
          "velocity": 79,
          "startBeat": 146.3762467567954,
          "durationBeat": 0.39174056108753813,
          "startSec": 121.98020563066285,
          "durationSec": 0.32645046757294843,
          "pitchBend": 0.0
        },
        {
          "pitch": 73,
          "velocity": 77,
          "startBeat": 147.15732977770213,
          "durationBeat": 0.3941372064780946,
          "startSec": 122.63110814808512,
          "durationSec": 0.32844767206507886,
          "pitchBend": 0.0
        },
        {
          "pitch": 70,
          "velocity": 76,
          "startBeat": 147.55146698418022,
          "durationBeat": 0.39533452847490996,
          "startSec": 122.95955582015019,
          "durationSec": 0.3294454403957583,
          "pitchBend": 0.0
        },
        {
          "pitch": 72,
          "velocity": 75,
          "startBeat": 149.0861439724743,
          "durationBeat": 0.8068725547863047,
          "startSec": 124.23845331039526,
          "durationSec": 0.6723937956552539,
          "pitchBend": 0.0
        },
        {
          "pitch": 73,
          "velocity": 74,
          "startBeat": 149.8930165272606,
          "durationBeat": 0.8478221156401221,
          "startSec": 124.91084710605051,
          "durationSec": 0.7065184297001018,
          "pitchBend": 0.0
        },
        {
          "pitch": 78,
          "velocity": 74,
          "startBeat": 150.74083864290074,
          "durationBeat": 0.8889977876745789,
          "startSec": 125.61736553575062,
          "durationSec": 0.7408314897288159,
          "pitchBend": 0.0
        },
        {
          "pitch": 80,
          "velocity": 70,
          "startBeat": 153.12983643057532,
          "durationBeat": 0.3905416014560843,
          "startSec": 127.60819702547944,
          "durationSec": 0.3254513345467369,
          "pitchBend": 0.0
        },
        {
          "pitch": 77,
          "velocity": 70,
          "startBeat": 153.5203780320314,
          "durationBeat": 0.39174056108753813,
          "startSec": 127.93364836002617,
          "durationSec": 0.32645046757294843,
          "pitchBend": 0.0
        },
        {
          "pitch": 75,
          "velocity": 70,
          "startBeat": 154.30146105293812,
          "durationBeat": 0.3941372064780946,
          "startSec": 128.58455087744844,
          "durationSec": 0.32844767206507886,
          "pitchBend": 0.0
        },
        {
          "pitch": 77,
          "velocity": 68,
          "startBeat": 154.69559825941622,
          "durationBeat": 0.39533452847490996,
          "startSec": 128.91299854951353,
          "durationSec": 0.3294454403957583,
          "pitchBend": 0.0
        },
        {
          "pitch": 78,
          "velocity": 66,
          "startBeat": 156.2302752477103,
          "durationBeat": 0.8068725547863047,
          "startSec": 130.19189603975857,
          "durationSec": 0.6723937956552539,
          "pitchBend": 0.0
        },
        {
          "pitch": 80,
          "velocity": 66,
          "startBeat": 157.0371478024966,
          "durationBeat": 0.8478221156401221,
          "startSec": 130.86428983541384,
          "durationSec": 0.7065184297001018,
          "pitchBend": 0.0
        },
        {
          "pitch": 82,
          "velocity": 64,
          "startBeat": 157.88496991813673,
          "durationBeat": 0.8889977876745789,
          "startSec": 131.57080826511395,
          "durationSec": 0.7408314897288159,
          "pitchBend": 0.0
        },
        {
          "pitch": 82,
          "velocity": 63,
          "startBeat": 160.27396770581132,
          "durationBeat": 0.7546195217241343,
          "startSec": 133.56163975484276,
          "durationSec": 0.6288496014367786,
          "pitchBend": 0.0
        }
      ]
    },
    {
      "name": "bass_cello",
      "instrument": 42,
      "channel": 1,
      "notes": [
        {
          "pitch": 46,
          "velocity": 22,
          "startBeat": 0.0,
          "durationBeat": 2.0,
          "startSec": 0.0,
          "durationSec": 1.6666666666666667,
          "pitchBend": 0.0
        },
        {
          "pitch": 46,
          "velocity": 23,
          "startBeat": 4.0,
          "durationBeat": 2.03304529216285,
          "startSec": 3.3333333333333335,
          "durationSec": 1.6942044101357083,
          "pitchBend": 0.0
        },
        {
          "pitch": 44,
          "velocity": 24,
          "startBeat": 8.03304529216285,
          "durationBeat": 2.0659460856710345,
          "startSec": 6.6942044101357085,
          "durationSec": 1.7216217380591956,
          "pitchBend": 0.0
        },
        {
          "pitch": 46,
          "velocity": 26,
          "startBeat": 16.098991377833883,
          "durationBeat": 2.1307399704769097,
          "startSec": 13.415826148194903,
          "durationSec": 1.7756166420640915,
          "pitchBend": 0.0
        },
        {
          "pitch": 48,
          "velocity": 27,
          "startBeat": 20.229731348310793,
          "durationBeat": 2.162349734602342,
          "startSec": 16.85810945692566,
          "durationSec": 1.8019581121686183,
          "pitchBend": 0.0
        },
        {
          "pitch": 49,
          "velocity": 28,
          "startBeat": 24.392081082913133,
          "durationBeat": 2.3029120638785376,
          "startSec": 20.326734235760945,
          "durationSec": 1.919093386565448,
          "pitchBend": 0.0
        },
        {
          "pitch": 53,
          "velocity": 35,
          "startBeat": 35.294993146791676,
          "durationBeat": 2.2803575286758364,
          "startSec": 29.412494288993063,
          "durationSec": 1.900297940563197,
          "pitchBend": 0.0
        },
        {
          "pitch": 51,
          "velocity": 38,
          "startBeat": 39.57535067546751,
          "durationBeat": 2.3071063563448337,
          "startSec": 32.97945889622293,
          "durationSec": 1.9225886302873616,
          "pitchBend": 0.0
        },
        {
          "pitch": 54,
          "velocity": 47,
          "startBeat": 47.88245703181234,
          "durationBeat": 2.3564642241456983,
          "startSec": 39.90204752651029,
          "durationSec": 1.963720186788082,
          "pitchBend": 0.0
        },
        {
          "pitch": 54,
          "velocity": 51,
          "startBeat": 52.23892125595804,
          "durationBeat": 2.3788574348801674,
          "startSec": 43.53243437996503,
          "durationSec": 1.982381195733473,
          "pitchBend": 0.0
        },
        {
          "pitch": 58,
          "velocity": 55,
          "startBeat": 56.61777869083821,
          "durationBeat": 2.5195736983698356,
          "startSec": 47.18148224236518,
          "durationSec": 2.0996447486415297,
          "pitchBend": 0.0
        },
        {
          "pitch": 60,
          "velocity": 67,
          "startBeat": 67.73735238920804,
          "durationBeat": 2.4509956150664793,
          "startSec": 56.44779365767337,
          "durationSec": 2.042496345888733,
          "pitchBend": 0.0
        },
        {
          "pitch": 58,
          "velocity": 73,
          "startBeat": 72.18834800427452,
          "durationBeat": 2.4642770192448538,
          "startSec": 60.156956670228766,
          "durationSec": 2.053564182704045,
          "pitchBend": 0.0
        },
        {
          "pitch": 56,
          "velocity": 77,
          "startBeat": 80.65262502351936,
          "durationBeat": 2.484700132969665,
          "startSec": 67.2105208529328,
          "durationSec": 2.0705834441413877,
          "pitchBend": 0.0
        },
        {
          "pitch": 53,
          "velocity": 83,
          "startBeat": 85.13732515648903,
          "durationBeat": 2.491752537436191,
          "startSec": 70.94777096374087,
          "durationSec": 2.0764604478634925,
          "pitchBend": 0.0
        },
        {
          "pitch": 54,
          "velocity": 87,
          "startBeat": 89.62907769392521,
          "durationBeat": 2.62148736483566,
          "startSec": 74.69089807827102,
          "durationSec": 2.1845728040297168,
          "pitchBend": 0.0
        },
        {
          "pitch": 56,
          "velocity": 102,
          "startBeat": 100.85056505876086,
          "durationBeat": 2.498292246503335,
          "startSec": 84.04213754896739,
          "durationSec": 2.0819102054194456,
          "pitchBend": 0.0
        },
        {
          "pitch": 58,
          "velocity": 102,
          "startBeat": 105.3488573052642,
          "durationBeat": 2.4944739353007344,
          "startSec": 87.79071442105351,
          "durationSec": 2.0787282794172786,
          "pitchBend": 0.0
        },
        {
          "pitch": 58,
          "velocity": 107,
          "startBeat": 113.84333124056494,
          "durationBeat": 2.480376838068424,
          "startSec": 94.86944270047078,
          "durationSec": 2.0669806983903536,
          "pitchBend": 0.0
        },
        {
          "pitch": 60,
          "velocity": 111,
          "startBeat": 118.32370807863336,
          "durationBeat": 2.4701596950580806,
          "startSec": 98.60309006552781,
          "durationSec": 2.0584664125484005,
          "pitchBend": 0.0
        },
        {
          "pitch": 58,
          "velocity": 112,
          "startBeat": 122.79386777369145,
          "durationBeat": 2.580780996493905,
          "startSec": 102.32822314474288,
          "durationSec": 2.1506508304115877,
          "pitchBend": 0.0
        },
        {
          "pitch": 56,
          "velocity": 104,
          "startBeat": 133.97464877018533,
          "durationBeat": 2.409312407343346,
          "startSec": 111.64554064182111,
          "durationSec": 2.0077603394527883,
          "pitchBend": 0.0
        },
        {
          "pitch": 58,
          "velocity": 97,
          "startBeat": 138.38396117752868,
          "durationBeat": 2.3894386393810563,
          "startSec": 115.31996764794057,
          "durationSec": 1.9911988661508804,
          "pitchBend": 0.0
        },
        {
          "pitch": 60,
          "velocity": 94,
          "startBeat": 146.77339981690974,
          "durationBeat": 2.344676704559283,
          "startSec": 122.31116651409145,
          "durationSec": 1.9538972537994026,
          "pitchBend": 0.0
        },
        {
          "pitch": 58,
          "velocity": 93,
          "startBeat": 151.11807652146902,
          "durationBeat": 2.319984270251658,
          "startSec": 125.93173043455752,
          "durationSec": 1.9333202252097152,
          "pitchBend": 0.0
        },
        {
          "pitch": 56,
          "velocity": 86,
          "startBeat": 155.4380607917207,
          "durationBeat": 2.4085872574535485,
          "startSec": 129.53171732643392,
          "durationSec": 2.0071560478779573,
          "pitchBend": 0.0
        },
        {
          "pitch": 54,
          "velocity": 80,
          "startBeat": 166.44664804917423,
          "durationBeat": 2.208390930247645,
          "startSec": 138.70554004097852,
          "durationSec": 1.840325775206371,
          "pitchBend": 0.0
        },
        {
          "pitch": 51,
          "velocity": 75,
          "startBeat": 170.65503897942187,
          "durationBeat": 2.177896923461258,
          "startSec": 142.21253248285157,
          "durationSec": 1.8149141028843818,
          "pitchBend": 0.0
        },
        {
          "pitch": 53,
          "velocity": 65,
          "startBeat": 178.83293590288312,
          "durationBeat": 2.114711960023376,
          "startSec": 149.02744658573593,
          "durationSec": 1.762259966686147,
          "pitchBend": 0.0
        },
        {
          "pitch": 54,
          "velocity": 64,
          "startBeat": 182.9476478629065,
          "durationBeat": 2.082297295140367,
          "startSec": 152.45637321908876,
          "durationSec": 1.7352477459503057,
          "pitchBend": 0.0
        },
        {
          "pitch": 54,
          "velocity": 61,
          "startBeat": 187.02994515804687,
          "durationBeat": 2.151998903381493,
          "startSec": 155.85828763170574,
          "durationSec": 1.7933324194845777,
          "pitchBend": 0.0
        }
      ]
    }
  ],
  "formSections": [
    {
      "label": "A",
      "startBar": 0,
      "endBar": 4,
      "bars": 4
    },
    {
      "label": "B",
      "startBar": 4,
      "endBar": 8,
      "bars": 4
    },
    {
      "label": "C",
      "startBar": 8,
      "endBar": 16,
      "bars": 8
    },
    {
      "label": "D",
      "startBar": 16,
      "endBar": 28,
      "bars": 12
    },
    {
      "label": "E",
      "startBar": 28,
      "endBar": 48,
      "bars": 20
    }
  ]
}