{
  "meta": {
    "title": "Logistic Map (r=3.7)",
    "tempo": 72,
    "durationBeats": 195.18194406142837,
    "durationSec": 162.65162005119032,
    "fps": 60,
    "audioFile": "track_05.wav"
  },
  "voices": [
    {
      "name": "melody_violin",
      "instrument": 40,
      "channel": 0,
      "notes": [
        {
          "pitch": 75,
          "velocity": 22,
          "startBeat": 0.0,
          "durationBeat": 0.75,
          "startSec": 0.0,
          "durationSec": 0.625,
          "pitchBend": 0.0
        },
        {
          "pitch": 73,
          "velocity": 22,
          "startBeat": 0.75,
          "durationBeat": 0.7523099361628572,
          "startSec": 0.625,
          "durationSec": 0.6269249468023811,
          "pitchBend": 0.0
        },
        {
          "pitch": 71,
          "velocity": 23,
          "startBeat": 1.5023099361628574,
          "durationBeat": 0.754619521724134,
          "startSec": 1.2519249468023812,
          "durationSec": 0.6288496014367784,
          "pitchBend": 0.0
        },
        {
          "pitch": 69,
          "velocity": 23,
          "startBeat": 3.0069294578869914,
          "durationBeat": 0.7592362389549032,
          "startSec": 2.5057745482391596,
          "durationSec": 0.6326968657957527,
          "pitchBend": 0.0
        },
        {
          "pitch": 69,
          "velocity": 23,
          "startBeat": 3.7661656968418944,
          "durationBeat": 0.7615426699001143,
          "startSec": 3.138471414034912,
          "durationSec": 0.6346188915834287,
          "pitchBend": 0.0
        },
        {
          "pitch": 69,
          "velocity": 24,
          "startBeat": 6.027708366742009,
          "durationBeat": 0.8068725547863047,
          "startSec": 5.023090305618341,
          "durationSec": 0.6723937956552539,
          "pitchBend": 0.0
        },
        {
          "pitch": 69,
          "velocity": 24,
          "startBeat": 6.834580921528314,
          "durationBeat": 0.8478221156401221,
          "startSec": 5.695484101273595,
          "durationSec": 0.7065184297001018,
          "pitchBend": 0.0
        },
        {
          "pitch": 71,
          "velocity": 24,
          "startBeat": 7.682403037168436,
          "durationBeat": 0.8889977876745789,
          "startSec": 6.402002530973697,
          "durationSec": 0.7408314897288159,
          "pitchBend": 0.0
        },
        {
          "pitch": 66,
          "velocity": 25,
          "startBeat": 10.071400824843016,
          "durationBeat": 0.41706517541026406,
          "startSec": 8.392834020702514,
          "durationSec": 0.3475543128418867,
          "pitchBend": 0.0
        },
        {
          "pitch": 64,
          "velocity": 25,
          "startBeat": 10.488466000253279,
          "durationBeat": 0.41834556220423885,
          "startSec": 8.7403883335444,
          "durationSec": 0.34862130183686574,
          "pitchBend": 0.0
        },
        {
          "pitch": 66,
          "velocity": 25,
          "startBeat": 11.322596156707492,
          "durationBeat": 0.4209049754049885,
          "startSec": 9.435496797256244,
          "durationSec": 0.3507541461708238,
          "pitchBend": 0.0
        },
        {
          "pitch": 68,
          "velocity": 25,
          "startBeat": 11.743501132112481,
          "durationBeat": 0.4221836133446154,
          "startSec": 9.786250943427069,
          "durationSec": 0.35181967778717954,
          "pitchBend": 0.0
        },
        {
          "pitch": 69,
          "velocity": 26,
          "startBeat": 12.997253933957044,
          "durationBeat": 0.4473135704043524,
          "startSec": 10.831044944964203,
          "durationSec": 0.37276130867029367,
          "pitchBend": 0.0
        },
        {
          "pitch": 71,
          "velocity": 26,
          "startBeat": 13.444567504361396,
          "durationBeat": 0.4700151657967779,
          "startSec": 11.203806253634497,
          "durationSec": 0.3916793048306482,
          "pitchBend": 0.0
        },
        {
          "pitch": 73,
          "velocity": 26,
          "startBeat": 13.914582670158174,
          "durationBeat": 0.4928421125832001,
          "startSec": 11.595485558465144,
          "durationSec": 0.4107017604860001,
          "pitchBend": 0.0
        },
        {
          "pitch": 71,
          "velocity": 27,
          "startBeat": 15.573209376991347,
          "durationBeat": 0.41706517541026406,
          "startSec": 12.977674480826122,
          "durationSec": 0.3475543128418867,
          "pitchBend": 0.0
        },
        {
          "pitch": 73,
          "velocity": 27,
          "startBeat": 15.99027455240161,
          "durationBeat": 0.41834556220423885,
          "startSec": 13.325228793668009,
          "durationSec": 0.34862130183686574,
          "pitchBend": 0.0
        },
        {
          "pitch": 71,
          "velocity": 28,
          "startBeat": 16.824404708855823,
          "durationBeat": 0.4209049754049885,
          "startSec": 14.020337257379854,
          "durationSec": 0.3507541461708238,
          "pitchBend": 0.0
        },
        {
          "pitch": 69,
          "velocity": 28,
          "startBeat": 17.24530968426081,
          "durationBeat": 0.4221836133446154,
          "startSec": 14.371091403550675,
          "durationSec": 0.35181967778717954,
          "pitchBend": 0.0
        },
        {
          "pitch": 68,
          "velocity": 28,
          "startBeat": 19.167493297605425,
          "durationBeat": 0.8068725547863047,
          "startSec": 15.972911081337855,
          "durationSec": 0.6723937956552539,
          "pitchBend": 0.0
        },
        {
          "pitch": 66,
          "velocity": 28,
          "startBeat": 19.97436585239173,
          "durationBeat": 0.8478221156401221,
          "startSec": 16.64530487699311,
          "durationSec": 0.7065184297001018,
          "pitchBend": 0.0
        },
        {
          "pitch": 69,
          "velocity": 30,
          "startBeat": 20.82218796803185,
          "durationBeat": 0.8889977876745789,
          "startSec": 17.35182330669321,
          "durationSec": 0.7408314897288159,
          "pitchBend": 0.0
        },
        {
          "pitch": 71,
          "velocity": 32,
          "startBeat": 23.21118575570643,
          "durationBeat": 0.41706517541026406,
          "startSec": 19.34265479642203,
          "durationSec": 0.3475543128418867,
          "pitchBend": 0.0
        },
        {
          "pitch": 73,
          "velocity": 34,
          "startBeat": 23.628250931116696,
          "durationBeat": 0.41834556220423885,
          "startSec": 19.690209109263915,
          "durationSec": 0.34862130183686574,
          "pitchBend": 0.0
        },
        {
          "pitch": 68,
          "velocity": 32,
          "startBeat": 24.462381087570908,
          "durationBeat": 0.4209049754049885,
          "startSec": 20.385317572975758,
          "durationSec": 0.3507541461708238,
          "pitchBend": 0.0
        },
        {
          "pitch": 64,
          "velocity": 35,
          "startBeat": 24.883286062975895,
          "durationBeat": 0.4221836133446154,
          "startSec": 20.73607171914658,
          "durationSec": 0.35181967778717954,
          "pitchBend": 0.0
        },
        {
          "pitch": 66,
          "velocity": 36,
          "startBeat": 26.80546967632051,
          "durationBeat": 0.8068725547863047,
          "startSec": 22.33789139693376,
          "durationSec": 0.6723937956552539,
          "pitchBend": 0.0
        },
        {
          "pitch": 68,
          "velocity": 36,
          "startBeat": 27.612342231106815,
          "durationBeat": 0.8478221156401221,
          "startSec": 23.010285192589013,
          "durationSec": 0.7065184297001018,
          "pitchBend": 0.0
        },
        {
          "pitch": 68,
          "velocity": 39,
          "startBeat": 28.460164346746936,
          "durationBeat": 0.8889977876745789,
          "startSec": 23.716803622289113,
          "durationSec": 0.7408314897288159,
          "pitchBend": 0.0
        },
        {
          "pitch": 71,
          "velocity": 40,
          "startBeat": 30.849162134421515,
          "durationBeat": 0.41706517541026406,
          "startSec": 25.70763511201793,
          "durationSec": 0.3475543128418867,
          "pitchBend": 0.0
        },
        {
          "pitch": 73,
          "velocity": 41,
          "startBeat": 31.26622730983178,
          "durationBeat": 0.41834556220423885,
          "startSec": 26.05518942485982,
          "durationSec": 0.34862130183686574,
          "pitchBend": 0.0
        },
        {
          "pitch": 71,
          "velocity": 42,
          "startBeat": 32.10035746628599,
          "durationBeat": 0.4209049754049885,
          "startSec": 26.750297888571662,
          "durationSec": 0.3507541461708238,
          "pitchBend": 0.0
        },
        {
          "pitch": 73,
          "velocity": 43,
          "startBeat": 32.52126244169098,
          "durationBeat": 0.4221836133446154,
          "startSec": 27.101052034742484,
          "durationSec": 0.35181967778717954,
          "pitchBend": 0.0
        },
        {
          "pitch": 71,
          "velocity": 46,
          "startBeat": 34.443446055035594,
          "durationBeat": 0.8068725547863047,
          "startSec": 28.702871712529664,
          "durationSec": 0.6723937956552539,
          "pitchBend": 0.0
        },
        {
          "pitch": 69,
          "velocity": 48,
          "startBeat": 35.250318609821896,
          "durationBeat": 0.8478221156401221,
          "startSec": 29.375265508184913,
          "durationSec": 0.7065184297001018,
          "pitchBend": 0.0
        },
        {
          "pitch": 68,
          "velocity": 47,
          "startBeat": 36.09814072546202,
          "durationBeat": 0.8889977876745789,
          "startSec": 30.081783937885014,
          "durationSec": 0.7408314897288159,
          "pitchBend": 0.0
        },
        {
          "pitch": 66,
          "velocity": 49,
          "startBeat": 38.48713851313659,
          "durationBeat": 0.41706517541026406,
          "startSec": 32.072615427613826,
          "durationSec": 0.3475543128418867,
          "pitchBend": 0.0
        },
        {
          "pitch": 68,
          "velocity": 52,
          "startBeat": 38.90420368854686,
          "durationBeat": 0.41834556220423885,
          "startSec": 32.42016974045572,
          "durationSec": 0.34862130183686574,
          "pitchBend": 0.0
        },
        {
          "pitch": 69,
          "velocity": 51,
          "startBeat": 39.73833384500107,
          "durationBeat": 0.4209049754049885,
          "startSec": 33.11527820416756,
          "durationSec": 0.3507541461708238,
          "pitchBend": 0.0
        },
        {
          "pitch": 71,
          "velocity": 53,
          "startBeat": 40.15923882040606,
          "durationBeat": 0.4221836133446154,
          "startSec": 33.46603235033839,
          "durationSec": 0.35181967778717954,
          "pitchBend": 0.0
        },
        {
          "pitch": 66,
          "velocity": 56,
          "startBeat": 42.081422433750674,
          "durationBeat": 0.8068725547863047,
          "startSec": 35.067852028125564,
          "durationSec": 0.6723937956552539,
          "pitchBend": 0.0
        },
        {
          "pitch": 64,
          "velocity": 57,
          "startBeat": 42.88829498853698,
          "durationBeat": 0.8478221156401221,
          "startSec": 35.74024582378082,
          "durationSec": 0.7065184297001018,
          "pitchBend": 0.0
        },
        {
          "pitch": 66,
          "velocity": 57,
          "startBeat": 43.7361171041771,
          "durationBeat": 0.8889977876745789,
          "startSec": 36.446764253480914,
          "durationSec": 0.7408314897288159,
          "pitchBend": 0.0
        },
        {
          "pitch": 68,
          "velocity": 62,
          "startBeat": 46.12511489185167,
          "durationBeat": 0.41706517541026406,
          "startSec": 38.43759574320973,
          "durationSec": 0.3475543128418867,
          "pitchBend": 0.0
        },
        {
          "pitch": 69,
          "velocity": 62,
          "startBeat": 46.54218006726194,
          "durationBeat": 0.41834556220423885,
          "startSec": 38.78515005605162,
          "durationSec": 0.34862130183686574,
          "pitchBend": 0.0
        },
        {
          "pitch": 71,
          "velocity": 61,
          "startBeat": 47.37631022371615,
          "durationBeat": 0.4209049754049885,
          "startSec": 39.48025851976346,
          "durationSec": 0.3507541461708238,
          "pitchBend": 0.0
        },
        {
          "pitch": 73,
          "velocity": 64,
          "startBeat": 47.79721519912114,
          "durationBeat": 0.4221836133446154,
          "startSec": 39.83101266593429,
          "durationSec": 0.35181967778717954,
          "pitchBend": 0.0
        },
        {
          "pitch": 71,
          "velocity": 65,
          "startBeat": 49.719398812465755,
          "durationBeat": 0.8068725547863047,
          "startSec": 41.432832343721465,
          "durationSec": 0.6723937956552539,
          "pitchBend": 0.0
        },
        {
          "pitch": 73,
          "velocity": 68,
          "startBeat": 50.52627136725206,
          "durationBeat": 0.8478221156401221,
          "startSec": 42.10522613937672,
          "durationSec": 0.7065184297001018,
          "pitchBend": 0.0
        },
        {
          "pitch": 71,
          "velocity": 68,
          "startBeat": 51.37409348289218,
          "durationBeat": 0.8889977876745789,
          "startSec": 42.811744569076815,
          "durationSec": 0.7408314897288159,
          "pitchBend": 0.0
        },
        {
          "pitch": 69,
          "velocity": 70,
          "startBeat": 53.763091270566754,
          "durationBeat": 0.41706517541026406,
          "startSec": 44.80257605880563,
          "durationSec": 0.3475543128418867,
          "pitchBend": 0.0
        },
        {
          "pitch": 66,
          "velocity": 72,
          "startBeat": 54.18015644597702,
          "durationBeat": 0.41834556220423885,
          "startSec": 45.15013037164752,
          "durationSec": 0.34862130183686574,
          "pitchBend": 0.0
        },
        {
          "pitch": 64,
          "velocity": 73,
          "startBeat": 55.014286602431234,
          "durationBeat": 0.4209049754049885,
          "startSec": 45.84523883535936,
          "durationSec": 0.3507541461708238,
          "pitchBend": 0.0
        },
        {
          "pitch": 66,
          "velocity": 74,
          "startBeat": 55.43519157783622,
          "durationBeat": 0.4221836133446154,
          "startSec": 46.19599298153019,
          "durationSec": 0.35181967778717954,
          "pitchBend": 0.0
        },
        {
          "pitch": 68,
          "velocity": 77,
          "startBeat": 57.357375191180836,
          "durationBeat": 0.8068725547863047,
          "startSec": 47.797812659317366,
          "durationSec": 0.6723937956552539,
          "pitchBend": 0.0
        },
        {
          "pitch": 69,
          "velocity": 76,
          "startBeat": 58.16424774596714,
          "durationBeat": 0.8478221156401221,
          "startSec": 48.47020645497262,
          "durationSec": 0.7065184297001018,
          "pitchBend": 0.0
        },
        {
          "pitch": 64,
          "velocity": 80,
          "startBeat": 59.01206986160726,
          "durationBeat": 0.8889977876745789,
          "startSec": 49.176724884672716,
          "durationSec": 0.7408314897288159,
          "pitchBend": 0.0
        },
        {
          "pitch": 61,
          "velocity": 83,
          "startBeat": 61.401067649281835,
          "durationBeat": 0.41706517541026406,
          "startSec": 51.16755637440153,
          "durationSec": 0.3475543128418867,
          "pitchBend": 0.0
        },
        {
          "pitch": 63,
          "velocity": 82,
          "startBeat": 61.8181328246921,
          "durationBeat": 0.41834556220423885,
          "startSec": 51.51511068724342,
          "durationSec": 0.34862130183686574,
          "pitchBend": 0.0
        },
        {
          "pitch": 64,
          "velocity": 81,
          "startBeat": 62.652262981146315,
          "durationBeat": 0.4209049754049885,
          "startSec": 52.21021915095526,
          "durationSec": 0.3507541461708238,
          "pitchBend": 0.0
        },
        {
          "pitch": 66,
          "velocity": 85,
          "startBeat": 63.0731679565513,
          "durationBeat": 0.4221836133446154,
          "startSec": 52.56097329712609,
          "durationSec": 0.35181967778717954,
          "pitchBend": 0.0
        },
        {
          "pitch": 68,
          "velocity": 86,
          "startBeat": 64.99535156989592,
          "durationBeat": 0.8068725547863047,
          "startSec": 54.162792974913266,
          "durationSec": 0.6723937956552539,
          "pitchBend": 0.0
        },
        {
          "pitch": 69,
          "velocity": 90,
          "startBeat": 65.80222412468223,
          "durationBeat": 0.8478221156401221,
          "startSec": 54.83518677056853,
          "durationSec": 0.7065184297001018,
          "pitchBend": 0.0
        },
        {
          "pitch": 68,
          "velocity": 87,
          "startBeat": 66.65004624032235,
          "durationBeat": 0.8889977876745789,
          "startSec": 55.54170520026863,
          "durationSec": 0.7408314897288159,
          "pitchBend": 0.0
        },
        {
          "pitch": 69,
          "velocity": 90,
          "startBeat": 69.03904402799694,
          "durationBeat": 0.41706517541026406,
          "startSec": 57.53253668999745,
          "durationSec": 0.3475543128418867,
          "pitchBend": 0.0
        },
        {
          "pitch": 66,
          "velocity": 94,
          "startBeat": 69.4561092034072,
          "durationBeat": 0.41834556220423885,
          "startSec": 57.88009100283933,
          "durationSec": 0.34862130183686574,
          "pitchBend": 0.0
        },
        {
          "pitch": 64,
          "velocity": 93,
          "startBeat": 70.2902393598614,
          "durationBeat": 0.4209049754049885,
          "startSec": 58.57519946655117,
          "durationSec": 0.3507541461708238,
          "pitchBend": 0.0
        },
        {
          "pitch": 61,
          "velocity": 94,
          "startBeat": 70.7111443352664,
          "durationBeat": 0.4221836133446154,
          "startSec": 58.925953612722,
          "durationSec": 0.35181967778717954,
          "pitchBend": 0.0
        },
        {
          "pitch": 61,
          "velocity": 96,
          "startBeat": 72.63332794861101,
          "durationBeat": 0.8068725547863047,
          "startSec": 60.52777329050918,
          "durationSec": 0.6723937956552539,
          "pitchBend": 0.0
        },
        {
          "pitch": 63,
          "velocity": 95,
          "startBeat": 73.44020050339732,
          "durationBeat": 0.8478221156401221,
          "startSec": 61.200167086164434,
          "durationSec": 0.7065184297001018,
          "pitchBend": 0.0
        },
        {
          "pitch": 64,
          "velocity": 98,
          "startBeat": 74.28802261903745,
          "durationBeat": 0.8889977876745789,
          "startSec": 61.906685515864545,
          "durationSec": 0.7408314897288159,
          "pitchBend": 0.0
        },
        {
          "pitch": 66,
          "velocity": 100,
          "startBeat": 76.67702040671203,
          "durationBeat": 0.41706517541026406,
          "startSec": 63.897517005593365,
          "durationSec": 0.3475543128418867,
          "pitchBend": 0.0
        },
        {
          "pitch": 61,
          "velocity": 104,
          "startBeat": 77.09408558212229,
          "durationBeat": 0.41834556220423885,
          "startSec": 64.24507131843525,
          "durationSec": 0.34862130183686574,
          "pitchBend": 0.0
        },
        {
          "pitch": 61,
          "velocity": 105,
          "startBeat": 77.9282157385765,
          "durationBeat": 0.4209049754049885,
          "startSec": 64.94017978214708,
          "durationSec": 0.3507541461708238,
          "pitchBend": 0.0
        },
        {
          "pitch": 63,
          "velocity": 107,
          "startBeat": 78.34912071398149,
          "durationBeat": 0.4221836133446154,
          "startSec": 65.29093392831791,
          "durationSec": 0.35181967778717954,
          "pitchBend": 0.0
        },
        {
          "pitch": 64,
          "velocity": 106,
          "startBeat": 80.2713043273261,
          "durationBeat": 0.8068725547863047,
          "startSec": 66.89275360610509,
          "durationSec": 0.6723937956552539,
          "pitchBend": 0.0
        },
        {
          "pitch": 66,
          "velocity": 110,
          "startBeat": 81.07817688211242,
          "durationBeat": 0.8478221156401221,
          "startSec": 67.56514740176036,
          "durationSec": 0.7065184297001018,
          "pitchBend": 0.0
        },
        {
          "pitch": 68,
          "velocity": 108,
          "startBeat": 81.92599899775254,
          "durationBeat": 0.8889977876745789,
          "startSec": 68.27166583146045,
          "durationSec": 0.7408314897288159,
          "pitchBend": 0.0
        },
        {
          "pitch": 69,
          "velocity": 111,
          "startBeat": 84.31499678542713,
          "durationBeat": 0.41706517541026406,
          "startSec": 70.26249732118927,
          "durationSec": 0.3475543128418867,
          "pitchBend": 0.0
        },
        {
          "pitch": 71,
          "velocity": 112,
          "startBeat": 84.73206196083738,
          "durationBeat": 0.41834556220423885,
          "startSec": 70.61005163403115,
          "durationSec": 0.34862130183686574,
          "pitchBend": 0.0
        },
        {
          "pitch": 68,
          "velocity": 115,
          "startBeat": 85.56619211729159,
          "durationBeat": 0.4209049754049885,
          "startSec": 71.305160097743,
          "durationSec": 0.3507541461708238,
          "pitchBend": 0.0
        },
        {
          "pitch": 66,
          "velocity": 116,
          "startBeat": 85.98709709269659,
          "durationBeat": 0.4221836133446154,
          "startSec": 71.65591424391383,
          "durationSec": 0.35181967778717954,
          "pitchBend": 0.0
        },
        {
          "pitch": 64,
          "velocity": 112,
          "startBeat": 87.9092807060412,
          "durationBeat": 0.8068725547863047,
          "startSec": 73.257733921701,
          "durationSec": 0.6723937956552539,
          "pitchBend": 0.0
        },
        {
          "pitch": 61,
          "velocity": 114,
          "startBeat": 88.71615326082751,
          "durationBeat": 0.8478221156401221,
          "startSec": 73.93012771735626,
          "durationSec": 0.7065184297001018,
          "pitchBend": 0.0
        },
        {
          "pitch": 61,
          "velocity": 116,
          "startBeat": 89.56397537646764,
          "durationBeat": 0.8889977876745789,
          "startSec": 74.63664614705637,
          "durationSec": 0.7408314897288159,
          "pitchBend": 0.0
        },
        {
          "pitch": 63,
          "velocity": 118,
          "startBeat": 91.95297316414222,
          "durationBeat": 0.41706517541026406,
          "startSec": 76.62747763678519,
          "durationSec": 0.3475543128418867,
          "pitchBend": 0.0
        },
        {
          "pitch": 64,
          "velocity": 119,
          "startBeat": 92.37003833955248,
          "durationBeat": 0.41834556220423885,
          "startSec": 76.97503194962707,
          "durationSec": 0.34862130183686574,
          "pitchBend": 0.0
        },
        {
          "pitch": 66,
          "velocity": 118,
          "startBeat": 93.20416849600669,
          "durationBeat": 0.4209049754049885,
          "startSec": 77.67014041333891,
          "durationSec": 0.3507541461708238,
          "pitchBend": 0.0
        },
        {
          "pitch": 61,
          "velocity": 119,
          "startBeat": 93.62507347141168,
          "durationBeat": 0.4221836133446154,
          "startSec": 78.02089455950974,
          "durationSec": 0.35181967778717954,
          "pitchBend": 0.0
        },
        {
          "pitch": 61,
          "velocity": 126,
          "startBeat": 95.5472570847563,
          "durationBeat": 0.8068725547863047,
          "startSec": 79.62271423729692,
          "durationSec": 0.6723937956552539,
          "pitchBend": 0.0
        },
        {
          "pitch": 63,
          "velocity": 120,
          "startBeat": 96.3541296395426,
          "durationBeat": 0.8478221156401221,
          "startSec": 80.29510803295217,
          "durationSec": 0.7065184297001018,
          "pitchBend": 0.0
        },
        {
          "pitch": 66,
          "velocity": 126,
          "startBeat": 97.20195175518273,
          "durationBeat": 0.8889977876745789,
          "startSec": 81.00162646265228,
          "durationSec": 0.7408314897288159,
          "pitchBend": 0.0
        },
        {
          "pitch": 68,
          "velocity": 125,
          "startBeat": 99.59094954285732,
          "durationBeat": 0.41706517541026406,
          "startSec": 82.9924579523811,
          "durationSec": 0.3475543128418867,
          "pitchBend": 0.0
        },
        {
          "pitch": 69,
          "velocity": 124,
          "startBeat": 100.00801471826757,
          "durationBeat": 0.41834556220423885,
          "startSec": 83.34001226522298,
          "durationSec": 0.34862130183686574,
          "pitchBend": 0.0
        },
        {
          "pitch": 71,
          "velocity": 123,
          "startBeat": 100.84214487472178,
          "durationBeat": 0.4209049754049885,
          "startSec": 84.03512072893483,
          "durationSec": 0.3507541461708238,
          "pitchBend": 0.0
        },
        {
          "pitch": 69,
          "velocity": 123,
          "startBeat": 101.26304985012678,
          "durationBeat": 0.4221836133446154,
          "startSec": 84.38587487510566,
          "durationSec": 0.35181967778717954,
          "pitchBend": 0.0
        },
        {
          "pitch": 71,
          "velocity": 122,
          "startBeat": 103.18523346347139,
          "durationBeat": 0.8068725547863047,
          "startSec": 85.98769455289283,
          "durationSec": 0.6723937956552539,
          "pitchBend": 0.0
        },
        {
          "pitch": 69,
          "velocity": 121,
          "startBeat": 103.9921060182577,
          "durationBeat": 0.8478221156401221,
          "startSec": 86.66008834854809,
          "durationSec": 0.7065184297001018,
          "pitchBend": 0.0
        },
        {
          "pitch": 66,
          "velocity": 124,
          "startBeat": 104.83992813389783,
          "durationBeat": 0.8889977876745789,
          "startSec": 87.3666067782482,
          "durationSec": 0.7408314897288159,
          "pitchBend": 0.0
        },
        {
          "pitch": 63,
          "velocity": 120,
          "startBeat": 107.22892592157241,
          "durationBeat": 0.41706517541026406,
          "startSec": 89.35743826797702,
          "durationSec": 0.3475543128418867,
          "pitchBend": 0.0
        },
        {
          "pitch": 61,
          "velocity": 118,
          "startBeat": 107.64599109698267,
          "durationBeat": 0.41834556220423885,
          "startSec": 89.7049925808189,
          "durationSec": 0.34862130183686574,
          "pitchBend": 0.0
        },
        {
          "pitch": 64,
          "velocity": 116,
          "startBeat": 108.48012125343688,
          "durationBeat": 0.4209049754049885,
          "startSec": 90.40010104453073,
          "durationSec": 0.3507541461708238,
          "pitchBend": 0.0
        },
        {
          "pitch": 66,
          "velocity": 117,
          "startBeat": 108.90102622884187,
          "durationBeat": 0.4221836133446154,
          "startSec": 90.75085519070156,
          "durationSec": 0.35181967778717954,
          "pitchBend": 0.0
        },
        {
          "pitch": 68,
          "velocity": 114,
          "startBeat": 110.82320984218649,
          "durationBeat": 0.8068725547863047,
          "startSec": 92.35267486848875,
          "durationSec": 0.6723937956552539,
          "pitchBend": 0.0
        },
        {
          "pitch": 63,
          "velocity": 113,
          "startBeat": 111.6300823969728,
          "durationBeat": 0.8478221156401221,
          "startSec": 93.025068664144,
          "durationSec": 0.7065184297001018,
          "pitchBend": 0.0
        },
        {
          "pitch": 61,
          "velocity": 112,
          "startBeat": 112.47790451261292,
          "durationBeat": 0.8889977876745789,
          "startSec": 93.73158709384411,
          "durationSec": 0.7408314897288159,
          "pitchBend": 0.0
        },
        {
          "pitch": 63,
          "velocity": 111,
          "startBeat": 114.8669023002875,
          "durationBeat": 0.41706517541026406,
          "startSec": 95.72241858357293,
          "durationSec": 0.3475543128418867,
          "pitchBend": 0.0
        },
        {
          "pitch": 64,
          "velocity": 112,
          "startBeat": 115.28396747569776,
          "durationBeat": 0.41834556220423885,
          "startSec": 96.06997289641481,
          "durationSec": 0.34862130183686574,
          "pitchBend": 0.0
        },
        {
          "pitch": 66,
          "velocity": 111,
          "startBeat": 116.11809763215197,
          "durationBeat": 0.4209049754049885,
          "startSec": 96.76508136012664,
          "durationSec": 0.3507541461708238,
          "pitchBend": 0.0
        },
        {
          "pitch": 68,
          "velocity": 107,
          "startBeat": 116.53900260755697,
          "durationBeat": 0.4221836133446154,
          "startSec": 97.11583550629747,
          "durationSec": 0.35181967778717954,
          "pitchBend": 0.0
        },
        {
          "pitch": 69,
          "velocity": 110,
          "startBeat": 118.46118622090158,
          "durationBeat": 0.8068725547863047,
          "startSec": 98.71765518408465,
          "durationSec": 0.6723937956552539,
          "pitchBend": 0.0
        },
        {
          "pitch": 71,
          "velocity": 106,
          "startBeat": 119.26805877568789,
          "durationBeat": 0.8478221156401221,
          "startSec": 99.39004897973992,
          "durationSec": 0.7065184297001018,
          "pitchBend": 0.0
        },
        {
          "pitch": 68,
          "velocity": 107,
          "startBeat": 120.11588089132802,
          "durationBeat": 0.8889977876745789,
          "startSec": 100.09656740944001,
          "durationSec": 0.7408314897288159,
          "pitchBend": 0.0
        },
        {
          "pitch": 66,
          "velocity": 102,
          "startBeat": 122.5048786790026,
          "durationBeat": 0.41706517541026406,
          "startSec": 102.08739889916883,
          "durationSec": 0.3475543128418867,
          "pitchBend": 0.0
        },
        {
          "pitch": 64,
          "velocity": 103,
          "startBeat": 122.92194385441286,
          "durationBeat": 0.41834556220423885,
          "startSec": 102.43495321201073,
          "durationSec": 0.34862130183686574,
          "pitchBend": 0.0
        },
        {
          "pitch": 63,
          "velocity": 105,
          "startBeat": 123.75607401086707,
          "durationBeat": 0.4209049754049885,
          "startSec": 103.13006167572256,
          "durationSec": 0.3507541461708238,
          "pitchBend": 0.0
        },
        {
          "pitch": 61,
          "velocity": 102,
          "startBeat": 124.17697898627206,
          "durationBeat": 0.4221836133446154,
          "startSec": 103.48081582189339,
          "durationSec": 0.35181967778717954,
          "pitchBend": 0.0
        },
        {
          "pitch": 63,
          "velocity": 101,
          "startBeat": 126.09916259961668,
          "durationBeat": 0.8068725547863047,
          "startSec": 105.08263549968056,
          "durationSec": 0.6723937956552539,
          "pitchBend": 0.0
        },
        {
          "pitch": 64,
          "velocity": 99,
          "startBeat": 126.90603515440299,
          "durationBeat": 0.8478221156401221,
          "startSec": 105.75502929533583,
          "durationSec": 0.7065184297001018,
          "pitchBend": 0.0
        },
        {
          "pitch": 66,
          "velocity": 98,
          "startBeat": 127.75385727004311,
          "durationBeat": 0.8889977876745789,
          "startSec": 106.46154772503593,
          "durationSec": 0.7408314897288159,
          "pitchBend": 0.0
        },
        {
          "pitch": 61,
          "velocity": 98,
          "startBeat": 130.1428550577177,
          "durationBeat": 0.41706517541026406,
          "startSec": 108.45237921476475,
          "durationSec": 0.3475543128418867,
          "pitchBend": 0.0
        },
        {
          "pitch": 61,
          "velocity": 98,
          "startBeat": 130.55992023312797,
          "durationBeat": 0.41834556220423885,
          "startSec": 108.79993352760664,
          "durationSec": 0.34862130183686574,
          "pitchBend": 0.0
        },
        {
          "pitch": 63,
          "velocity": 94,
          "startBeat": 131.3940503895822,
          "durationBeat": 0.4209049754049885,
          "startSec": 109.4950419913185,
          "durationSec": 0.3507541461708238,
          "pitchBend": 0.0
        },
        {
          "pitch": 64,
          "velocity": 95,
          "startBeat": 131.81495536498718,
          "durationBeat": 0.4221836133446154,
          "startSec": 109.84579613748933,
          "durationSec": 0.35181967778717954,
          "pitchBend": 0.0
        },
        {
          "pitch": 66,
          "velocity": 93,
          "startBeat": 133.7371389783318,
          "durationBeat": 0.8068725547863047,
          "startSec": 111.44761581527652,
          "durationSec": 0.6723937956552539,
          "pitchBend": 0.0
        },
        {
          "pitch": 68,
          "velocity": 91,
          "startBeat": 134.54401153311812,
          "durationBeat": 0.8478221156401221,
          "startSec": 112.12000961093177,
          "durationSec": 0.7065184297001018,
          "pitchBend": 0.0
        },
        {
          "pitch": 71,
          "velocity": 91,
          "startBeat": 135.39183364875825,
          "durationBeat": 0.8889977876745789,
          "startSec": 112.82652804063189,
          "durationSec": 0.7408314897288159,
          "pitchBend": 0.0
        },
        {
          "pitch": 71,
          "velocity": 88,
          "startBeat": 137.78083143643283,
          "durationBeat": 0.41706517541026406,
          "startSec": 114.8173595303607,
          "durationSec": 0.3475543128418867,
          "pitchBend": 0.0
        },
        {
          "pitch": 71,
          "velocity": 88,
          "startBeat": 138.1978966118431,
          "durationBeat": 0.41834556220423885,
          "startSec": 115.1649138432026,
          "durationSec": 0.34862130183686574,
          "pitchBend": 0.0
        },
        {
          "pitch": 68,
          "velocity": 86,
          "startBeat": 139.03202676829733,
          "durationBeat": 0.4209049754049885,
          "startSec": 115.86002230691444,
          "durationSec": 0.3507541461708238,
          "pitchBend": 0.0
        },
        {
          "pitch": 66,
          "velocity": 87,
          "startBeat": 139.45293174370232,
          "durationBeat": 0.4221836133446154,
          "startSec": 116.21077645308527,
          "durationSec": 0.35181967778717954,
          "pitchBend": 0.0
        },
        {
          "pitch": 64,
          "velocity": 82,
          "startBeat": 141.37511535704695,
          "durationBeat": 0.8068725547863047,
          "startSec": 117.81259613087246,
          "durationSec": 0.6723937956552539,
          "pitchBend": 0.0
        },
        {
          "pitch": 63,
          "velocity": 83,
          "startBeat": 142.18198791183326,
          "durationBeat": 0.8478221156401221,
          "startSec": 118.48498992652772,
          "durationSec": 0.7065184297001018,
          "pitchBend": 0.0
        },
        {
          "pitch": 64,
          "velocity": 82,
          "startBeat": 143.0298100274734,
          "durationBeat": 0.8889977876745789,
          "startSec": 119.19150835622783,
          "durationSec": 0.7408314897288159,
          "pitchBend": 0.0
        },
        {
          "pitch": 66,
          "velocity": 80,
          "startBeat": 145.41880781514797,
          "durationBeat": 0.41706517541026406,
          "startSec": 121.18233984595665,
          "durationSec": 0.3475543128418867,
          "pitchBend": 0.0
        },
        {
          "pitch": 68,
          "velocity": 79,
          "startBeat": 145.83587299055824,
          "durationBeat": 0.41834556220423885,
          "startSec": 121.52989415879854,
          "durationSec": 0.34862130183686574,
          "pitchBend": 0.0
        },
        {
          "pitch": 63,
          "velocity": 77,
          "startBeat": 146.67000314701247,
          "durationBeat": 0.4209049754049885,
          "startSec": 122.22500262251039,
          "durationSec": 0.3507541461708238,
          "pitchBend": 0.0
        },
        {
          "pitch": 61,
          "velocity": 78,
          "startBeat": 147.09090812241746,
          "durationBeat": 0.4221836133446154,
          "startSec": 122.57575676868122,
          "durationSec": 0.35181967778717954,
          "pitchBend": 0.0
        },
        {
          "pitch": 63,
          "velocity": 74,
          "startBeat": 149.0130917357621,
          "durationBeat": 0.8068725547863047,
          "startSec": 124.17757644646841,
          "durationSec": 0.6723937956552539,
          "pitchBend": 0.0
        },
        {
          "pitch": 64,
          "velocity": 72,
          "startBeat": 149.8199642905484,
          "durationBeat": 0.8478221156401221,
          "startSec": 124.84997024212367,
          "durationSec": 0.7065184297001018,
          "pitchBend": 0.0
        },
        {
          "pitch": 64,
          "velocity": 74,
          "startBeat": 150.66778640618853,
          "durationBeat": 0.8889977876745789,
          "startSec": 125.55648867182377,
          "durationSec": 0.7408314897288159,
          "pitchBend": 0.0
        },
        {
          "pitch": 66,
          "velocity": 70,
          "startBeat": 153.0567841938631,
          "durationBeat": 0.41706517541026406,
          "startSec": 127.54732016155259,
          "durationSec": 0.3475543128418867,
          "pitchBend": 0.0
        },
        {
          "pitch": 68,
          "velocity": 68,
          "startBeat": 153.47384936927338,
          "durationBeat": 0.41834556220423885,
          "startSec": 127.89487447439448,
          "durationSec": 0.34862130183686574,
          "pitchBend": 0.0
        },
        {
          "pitch": 69,
          "velocity": 70,
          "startBeat": 154.3079795257276,
          "durationBeat": 0.4209049754049885,
          "startSec": 128.58998293810635,
          "durationSec": 0.3507541461708238,
          "pitchBend": 0.0
        },
        {
          "pitch": 68,
          "velocity": 68,
          "startBeat": 154.7288845011326,
          "durationBeat": 0.4221836133446154,
          "startSec": 128.94073708427717,
          "durationSec": 0.35181967778717954,
          "pitchBend": 0.0
        },
        {
          "pitch": 66,
          "velocity": 67,
          "startBeat": 156.65106811447723,
          "durationBeat": 0.8068725547863047,
          "startSec": 130.54255676206435,
          "durationSec": 0.6723937956552539,
          "pitchBend": 0.0
        },
        {
          "pitch": 64,
          "velocity": 63,
          "startBeat": 157.45794066926354,
          "durationBeat": 0.8478221156401221,
          "startSec": 131.21495055771962,
          "durationSec": 0.7065184297001018,
          "pitchBend": 0.0
        },
        {
          "pitch": 61,
          "velocity": 65,
          "startBeat": 158.30576278490366,
          "durationBeat": 0.8889977876745789,
          "startSec": 131.92146898741973,
          "durationSec": 0.7408314897288159,
          "pitchBend": 0.0
        },
        {
          "pitch": 61,
          "velocity": 61,
          "startBeat": 160.69476057257825,
          "durationBeat": 0.7546195217241343,
          "startSec": 133.91230047714853,
          "durationSec": 0.6288496014367786,
          "pitchBend": 0.0
        }
      ]
    },
    {
      "name": "bass_cello",
      "instrument": 42,
      "channel": 1,
      "notes": [
        {
          "pitch": 49,
          "velocity": 22,
          "startBeat": 0.0,
          "durationBeat": 2.0,
          "startSec": 0.0,
          "durationSec": 1.6666666666666667,
          "pitchBend": 0.0
        },
        {
          "pitch": 51,
          "velocity": 23,
          "startBeat": 4.0,
          "durationBeat": 2.03304529216285,
          "startSec": 3.3333333333333335,
          "durationSec": 1.6942044101357083,
          "pitchBend": 0.0
        },
        {
          "pitch": 54,
          "velocity": 24,
          "startBeat": 8.03304529216285,
          "durationBeat": 2.0659460856710345,
          "startSec": 6.6942044101357085,
          "durationSec": 1.7216217380591956,
          "pitchBend": 0.0
        },
        {
          "pitch": 54,
          "velocity": 26,
          "startBeat": 16.098991377833883,
          "durationBeat": 2.1307399704769097,
          "startSec": 13.415826148194903,
          "durationSec": 1.7756166420640915,
          "pitchBend": 0.0
        },
        {
          "pitch": 54,
          "velocity": 27,
          "startBeat": 20.229731348310793,
          "durationBeat": 2.162349734602342,
          "startSec": 16.85810945692566,
          "durationSec": 1.8019581121686183,
          "pitchBend": 0.0
        },
        {
          "pitch": 54,
          "velocity": 28,
          "startBeat": 24.392081082913133,
          "durationBeat": 2.3029120638785376,
          "startSec": 20.326734235760945,
          "durationSec": 1.919093386565448,
          "pitchBend": 0.0
        },
        {
          "pitch": 56,
          "velocity": 35,
          "startBeat": 35.294993146791676,
          "durationBeat": 2.2803575286758364,
          "startSec": 29.412494288993063,
          "durationSec": 1.900297940563197,
          "pitchBend": 0.0
        },
        {
          "pitch": 56,
          "velocity": 40,
          "startBeat": 39.57535067546751,
          "durationBeat": 2.3071063563448337,
          "startSec": 32.97945889622293,
          "durationSec": 1.9225886302873616,
          "pitchBend": 0.0
        },
        {
          "pitch": 56,
          "velocity": 46,
          "startBeat": 47.88245703181234,
          "durationBeat": 2.3564642241456983,
          "startSec": 39.90204752651029,
          "durationSec": 1.963720186788082,
          "pitchBend": 0.0
        },
        {
          "pitch": 57,
          "velocity": 51,
          "startBeat": 52.23892125595804,
          "durationBeat": 2.3788574348801674,
          "startSec": 43.53243437996503,
          "durationSec": 1.982381195733473,
          "pitchBend": 0.0
        },
        {
          "pitch": 61,
          "velocity": 55,
          "startBeat": 56.61777869083821,
          "durationBeat": 2.5195736983698356,
          "startSec": 47.18148224236518,
          "durationSec": 2.0996447486415297,
          "pitchBend": 0.0
        },
        {
          "pitch": 61,
          "velocity": 67,
          "startBeat": 67.73735238920804,
          "durationBeat": 2.4509956150664793,
          "startSec": 56.44779365767337,
          "durationSec": 2.042496345888733,
          "pitchBend": 0.0
        },
        {
          "pitch": 61,
          "velocity": 72,
          "startBeat": 72.18834800427452,
          "durationBeat": 2.4642770192448538,
          "startSec": 60.156956670228766,
          "durationSec": 2.053564182704045,
          "pitchBend": 0.0
        },
        {
          "pitch": 61,
          "velocity": 79,
          "startBeat": 80.65262502351936,
          "durationBeat": 2.484700132969665,
          "startSec": 67.2105208529328,
          "durationSec": 2.0705834441413877,
          "pitchBend": 0.0
        },
        {
          "pitch": 59,
          "velocity": 86,
          "startBeat": 85.13732515648903,
          "durationBeat": 2.491752537436191,
          "startSec": 70.94777096374087,
          "durationSec": 2.0764604478634925,
          "pitchBend": 0.0
        },
        {
          "pitch": 57,
          "velocity": 88,
          "startBeat": 89.62907769392521,
          "durationBeat": 2.62148736483566,
          "startSec": 74.69089807827102,
          "durationSec": 2.1845728040297168,
          "pitchBend": 0.0
        },
        {
          "pitch": 57,
          "velocity": 100,
          "startBeat": 100.85056505876086,
          "durationBeat": 2.498292246503335,
          "startSec": 84.04213754896739,
          "durationSec": 2.0819102054194456,
          "pitchBend": 0.0
        },
        {
          "pitch": 59,
          "velocity": 101,
          "startBeat": 105.3488573052642,
          "durationBeat": 2.4944739353007344,
          "startSec": 87.79071442105351,
          "durationSec": 2.0787282794172786,
          "pitchBend": 0.0
        },
        {
          "pitch": 61,
          "velocity": 109,
          "startBeat": 113.84333124056494,
          "durationBeat": 2.480376838068424,
          "startSec": 94.86944270047078,
          "durationSec": 2.0669806983903536,
          "pitchBend": 0.0
        },
        {
          "pitch": 59,
          "velocity": 113,
          "startBeat": 118.32370807863336,
          "durationBeat": 2.4701596950580806,
          "startSec": 98.60309006552781,
          "durationSec": 2.0584664125484005,
          "pitchBend": 0.0
        },
        {
          "pitch": 61,
          "velocity": 112,
          "startBeat": 122.79386777369145,
          "durationBeat": 2.580780996493905,
          "startSec": 102.32822314474288,
          "durationSec": 2.1506508304115877,
          "pitchBend": 0.0
        },
        {
          "pitch": 59,
          "velocity": 105,
          "startBeat": 133.97464877018533,
          "durationBeat": 2.409312407343346,
          "startSec": 111.64554064182111,
          "durationSec": 2.0077603394527883,
          "pitchBend": 0.0
        },
        {
          "pitch": 61,
          "velocity": 103,
          "startBeat": 138.38396117752868,
          "durationBeat": 2.3894386393810563,
          "startSec": 115.31996764794057,
          "durationSec": 1.9911988661508804,
          "pitchBend": 0.0
        },
        {
          "pitch": 57,
          "velocity": 95,
          "startBeat": 146.77339981690974,
          "durationBeat": 2.344676704559283,
          "startSec": 122.31116651409145,
          "durationSec": 1.9538972537994026,
          "pitchBend": 0.0
        },
        {
          "pitch": 56,
          "velocity": 92,
          "startBeat": 151.11807652146902,
          "durationBeat": 2.319984270251658,
          "startSec": 125.93173043455752,
          "durationSec": 1.9333202252097152,
          "pitchBend": 0.0
        },
        {
          "pitch": 57,
          "velocity": 88,
          "startBeat": 155.4380607917207,
          "durationBeat": 2.4085872574535485,
          "startSec": 129.53171732643392,
          "durationSec": 2.0071560478779573,
          "pitchBend": 0.0
        },
        {
          "pitch": 61,
          "velocity": 76,
          "startBeat": 166.44664804917423,
          "durationBeat": 2.208390930247645,
          "startSec": 138.70554004097852,
          "durationSec": 1.840325775206371,
          "pitchBend": 0.0
        },
        {
          "pitch": 61,
          "velocity": 75,
          "startBeat": 170.65503897942187,
          "durationBeat": 2.177896923461258,
          "startSec": 142.21253248285157,
          "durationSec": 1.8149141028843818,
          "pitchBend": 0.0
        },
        {
          "pitch": 59,
          "velocity": 69,
          "startBeat": 178.83293590288312,
          "durationBeat": 2.114711960023376,
          "startSec": 149.02744658573593,
          "durationSec": 1.762259966686147,
          "pitchBend": 0.0
        },
        {
          "pitch": 59,
          "velocity": 62,
          "startBeat": 182.9476478629065,
          "durationBeat": 2.082297295140367,
          "startSec": 152.45637321908876,
          "durationSec": 1.7352477459503057,
          "pitchBend": 0.0
        },
        {
          "pitch": 59,
          "velocity": 61,
          "startBeat": 187.02994515804687,
          "durationBeat": 2.151998903381493,
          "startSec": 155.85828763170574,
          "durationSec": 1.7933324194845777,
          "pitchBend": 0.0
        }
      ]
    }
  ],
  "formSections": [
    {
      "label": "A",
      "startBar": 0,
      "endBar": 4,
      "bars": 4
    },
    {
      "label": "B",
      "startBar": 4,
      "endBar": 8,
      "bars": 4
    },
    {
      "label": "C",
      "startBar": 8,
      "endBar": 16,
      "bars": 8
    },
    {
      "label": "D",
      "startBar": 16,
      "endBar": 28,
      "bars": 12
    },
    {
      "label": "E",
      "startBar": 28,
      "endBar": 48,
      "bars": 20
    }
  ]
}