{
  "meta": {
    "title": "Zipf's Law",
    "tempo": 72,
    "durationBeats": 195.18194406142837,
    "durationSec": 162.65162005119032,
    "fps": 60,
    "audioFile": "track_09.wav"
  },
  "voices": [
    {
      "name": "melody_violin",
      "instrument": 40,
      "channel": 0,
      "notes": [
        {
          "pitch": 63,
          "velocity": 22,
          "startBeat": 0.0,
          "durationBeat": 0.75,
          "startSec": 0.0,
          "durationSec": 0.625,
          "pitchBend": 0.0
        },
        {
          "pitch": 63,
          "velocity": 22,
          "startBeat": 0.75,
          "durationBeat": 0.7523099361628572,
          "startSec": 0.625,
          "durationSec": 0.6269249468023811,
          "pitchBend": 0.0
        },
        {
          "pitch": 60,
          "velocity": 23,
          "startBeat": 1.5023099361628574,
          "durationBeat": 0.754619521724134,
          "startSec": 1.2519249468023812,
          "durationSec": 0.6288496014367784,
          "pitchBend": 0.0
        },
        {
          "pitch": 60,
          "velocity": 23,
          "startBeat": 3.0069294578869914,
          "durationBeat": 0.7592362389549032,
          "startSec": 2.5057745482391596,
          "durationSec": 0.6326968657957527,
          "pitchBend": 0.0
        },
        {
          "pitch": 62,
          "velocity": 23,
          "startBeat": 3.7661656968418944,
          "durationBeat": 0.7615426699001143,
          "startSec": 3.138471414034912,
          "durationSec": 0.6346188915834287,
          "pitchBend": 0.0
        },
        {
          "pitch": 63,
          "velocity": 24,
          "startBeat": 6.027708366742009,
          "durationBeat": 0.8068725547863047,
          "startSec": 5.023090305618341,
          "durationSec": 0.6723937956552539,
          "pitchBend": 0.0
        },
        {
          "pitch": 63,
          "velocity": 24,
          "startBeat": 6.834580921528314,
          "durationBeat": 0.8478221156401221,
          "startSec": 5.695484101273595,
          "durationSec": 0.7065184297001018,
          "pitchBend": 0.0
        },
        {
          "pitch": 62,
          "velocity": 24,
          "startBeat": 7.682403037168436,
          "durationBeat": 0.8889977876745789,
          "startSec": 6.402002530973697,
          "durationSec": 0.7408314897288159,
          "pitchBend": 0.0
        },
        {
          "pitch": 60,
          "velocity": 25,
          "startBeat": 10.071400824843016,
          "durationBeat": 0.4931113434554277,
          "startSec": 8.392834020702514,
          "durationSec": 0.41092611954618974,
          "pitchBend": 0.0
        },
        {
          "pitch": 62,
          "velocity": 25,
          "startBeat": 10.564512168298444,
          "durationBeat": 0.49462519138458744,
          "startSec": 8.803760140248704,
          "durationSec": 0.4121876594871562,
          "pitchBend": 0.0
        },
        {
          "pitch": 62,
          "velocity": 25,
          "startBeat": 11.550734625402928,
          "durationBeat": 0.49765127880758486,
          "startSec": 9.625612187835774,
          "durationSec": 0.41470939900632076,
          "pitchBend": 0.0
        },
        {
          "pitch": 65,
          "velocity": 25,
          "startBeat": 12.048385904210512,
          "durationBeat": 0.49916305900256824,
          "startSec": 10.040321586842094,
          "durationSec": 0.4159692158354735,
          "pitchBend": 0.0
        },
        {
          "pitch": 70,
          "velocity": 26,
          "startBeat": 13.530743494652873,
          "durationBeat": 0.5288751222898334,
          "startSec": 11.275619578877395,
          "durationSec": 0.44072926857486117,
          "pitchBend": 0.0
        },
        {
          "pitch": 65,
          "velocity": 26,
          "startBeat": 14.059618616942705,
          "durationBeat": 0.5557160451540563,
          "startSec": 11.716348847452254,
          "durationSec": 0.4630967042950469,
          "pitchBend": 0.0
        },
        {
          "pitch": 62,
          "velocity": 26,
          "startBeat": 14.615334662096762,
          "durationBeat": 0.5827051755358138,
          "startSec": 12.179445551747301,
          "durationSec": 0.48558764627984485,
          "pitchBend": 0.0
        },
        {
          "pitch": 60,
          "velocity": 27,
          "startBeat": 16.439637103352474,
          "durationBeat": 0.4931113434554277,
          "startSec": 13.699697586127062,
          "durationSec": 0.41092611954618974,
          "pitchBend": 0.0
        },
        {
          "pitch": 62,
          "velocity": 27,
          "startBeat": 16.932748446807903,
          "durationBeat": 0.49462519138458744,
          "startSec": 14.110623705673254,
          "durationSec": 0.4121876594871562,
          "pitchBend": 0.0
        },
        {
          "pitch": 63,
          "velocity": 28,
          "startBeat": 17.91897090391239,
          "durationBeat": 0.49765127880758486,
          "startSec": 14.932475753260324,
          "durationSec": 0.41470939900632076,
          "pitchBend": 0.0
        },
        {
          "pitch": 60,
          "velocity": 28,
          "startBeat": 18.416622182719973,
          "durationBeat": 0.49916305900256824,
          "startSec": 15.347185152266645,
          "durationSec": 0.4159692158354735,
          "pitchBend": 0.0
        },
        {
          "pitch": 60,
          "velocity": 29,
          "startBeat": 20.15738250744244,
          "durationBeat": 0.8068725547863047,
          "startSec": 16.797818756202034,
          "durationSec": 0.6723937956552539,
          "pitchBend": 0.0
        },
        {
          "pitch": 63,
          "velocity": 28,
          "startBeat": 20.964255062228744,
          "durationBeat": 0.8478221156401221,
          "startSec": 17.470212551857287,
          "durationSec": 0.7065184297001018,
          "pitchBend": 0.0
        },
        {
          "pitch": 65,
          "velocity": 29,
          "startBeat": 21.812077177868865,
          "durationBeat": 0.8889977876745789,
          "startSec": 18.176730981557387,
          "durationSec": 0.7408314897288159,
          "pitchBend": 0.0
        },
        {
          "pitch": 67,
          "velocity": 31,
          "startBeat": 24.201074965543445,
          "durationBeat": 0.4931113434554277,
          "startSec": 20.167562471286203,
          "durationSec": 0.41092611954618974,
          "pitchBend": 0.0
        },
        {
          "pitch": 65,
          "velocity": 32,
          "startBeat": 24.694186308998873,
          "durationBeat": 0.49462519138458744,
          "startSec": 20.578488590832396,
          "durationSec": 0.4121876594871562,
          "pitchBend": 0.0
        },
        {
          "pitch": 63,
          "velocity": 33,
          "startBeat": 25.68040876610336,
          "durationBeat": 0.49765127880758486,
          "startSec": 21.400340638419465,
          "durationSec": 0.41470939900632076,
          "pitchBend": 0.0
        },
        {
          "pitch": 65,
          "velocity": 34,
          "startBeat": 26.178060044910943,
          "durationBeat": 0.49916305900256824,
          "startSec": 21.815050037425788,
          "durationSec": 0.4159692158354735,
          "pitchBend": 0.0
        },
        {
          "pitch": 67,
          "velocity": 37,
          "startBeat": 27.91882036963341,
          "durationBeat": 0.8068725547863047,
          "startSec": 23.265683641361175,
          "durationSec": 0.6723937956552539,
          "pitchBend": 0.0
        },
        {
          "pitch": 68,
          "velocity": 37,
          "startBeat": 28.725692924419715,
          "durationBeat": 0.8478221156401221,
          "startSec": 23.938077437016428,
          "durationSec": 0.7065184297001018,
          "pitchBend": 0.0
        },
        {
          "pitch": 72,
          "velocity": 38,
          "startBeat": 29.573515040059835,
          "durationBeat": 0.8889977876745789,
          "startSec": 24.64459586671653,
          "durationSec": 0.7408314897288159,
          "pitchBend": 0.0
        },
        {
          "pitch": 67,
          "velocity": 41,
          "startBeat": 31.962512827734415,
          "durationBeat": 0.4931113434554277,
          "startSec": 26.635427356445348,
          "durationSec": 0.41092611954618974,
          "pitchBend": 0.0
        },
        {
          "pitch": 63,
          "velocity": 42,
          "startBeat": 32.45562417118984,
          "durationBeat": 0.49462519138458744,
          "startSec": 27.046353475991534,
          "durationSec": 0.4121876594871562,
          "pitchBend": 0.0
        },
        {
          "pitch": 63,
          "velocity": 42,
          "startBeat": 33.44184662829432,
          "durationBeat": 0.49765127880758486,
          "startSec": 27.868205523578602,
          "durationSec": 0.41470939900632076,
          "pitchBend": 0.0
        },
        {
          "pitch": 62,
          "velocity": 43,
          "startBeat": 33.93949790710191,
          "durationBeat": 0.49916305900256824,
          "startSec": 28.282914922584926,
          "durationSec": 0.4159692158354735,
          "pitchBend": 0.0
        },
        {
          "pitch": 63,
          "velocity": 45,
          "startBeat": 35.680258231824375,
          "durationBeat": 0.8068725547863047,
          "startSec": 29.733548526520313,
          "durationSec": 0.6723937956552539,
          "pitchBend": 0.0
        },
        {
          "pitch": 60,
          "velocity": 46,
          "startBeat": 36.48713078661068,
          "durationBeat": 0.8478221156401221,
          "startSec": 30.405942322175566,
          "durationSec": 0.7065184297001018,
          "pitchBend": 0.0
        },
        {
          "pitch": 60,
          "velocity": 47,
          "startBeat": 37.3349529022508,
          "durationBeat": 0.8889977876745789,
          "startSec": 31.112460751875666,
          "durationSec": 0.7408314897288159,
          "pitchBend": 0.0
        },
        {
          "pitch": 62,
          "velocity": 50,
          "startBeat": 39.723950689925374,
          "durationBeat": 0.4931113434554277,
          "startSec": 33.10329224160448,
          "durationSec": 0.41092611954618974,
          "pitchBend": 0.0
        },
        {
          "pitch": 63,
          "velocity": 52,
          "startBeat": 40.2170620333808,
          "durationBeat": 0.49462519138458744,
          "startSec": 33.51421836115067,
          "durationSec": 0.4121876594871562,
          "pitchBend": 0.0
        },
        {
          "pitch": 65,
          "velocity": 53,
          "startBeat": 41.20328449048528,
          "durationBeat": 0.49765127880758486,
          "startSec": 34.33607040873773,
          "durationSec": 0.41470939900632076,
          "pitchBend": 0.0
        },
        {
          "pitch": 63,
          "velocity": 55,
          "startBeat": 41.70093576929287,
          "durationBeat": 0.49916305900256824,
          "startSec": 34.75077980774406,
          "durationSec": 0.4159692158354735,
          "pitchBend": 0.0
        },
        {
          "pitch": 60,
          "velocity": 56,
          "startBeat": 43.441696094015334,
          "durationBeat": 0.8068725547863047,
          "startSec": 36.20141341167945,
          "durationSec": 0.6723937956552539,
          "pitchBend": 0.0
        },
        {
          "pitch": 63,
          "velocity": 58,
          "startBeat": 44.24856864880164,
          "durationBeat": 0.8478221156401221,
          "startSec": 36.8738072073347,
          "durationSec": 0.7065184297001018,
          "pitchBend": 0.0
        },
        {
          "pitch": 65,
          "velocity": 58,
          "startBeat": 45.09639076444176,
          "durationBeat": 0.8889977876745789,
          "startSec": 37.5803256370348,
          "durationSec": 0.7408314897288159,
          "pitchBend": 0.0
        },
        {
          "pitch": 68,
          "velocity": 62,
          "startBeat": 47.48538855211633,
          "durationBeat": 0.4931113434554277,
          "startSec": 39.571157126763616,
          "durationSec": 0.41092611954618974,
          "pitchBend": 0.0
        },
        {
          "pitch": 72,
          "velocity": 60,
          "startBeat": 47.97849989557176,
          "durationBeat": 0.49462519138458744,
          "startSec": 39.9820832463098,
          "durationSec": 0.4121876594871562,
          "pitchBend": 0.0
        },
        {
          "pitch": 67,
          "velocity": 63,
          "startBeat": 48.96472235267624,
          "durationBeat": 0.49765127880758486,
          "startSec": 40.80393529389687,
          "durationSec": 0.41470939900632076,
          "pitchBend": 0.0
        },
        {
          "pitch": 63,
          "velocity": 64,
          "startBeat": 49.46237363148383,
          "durationBeat": 0.49916305900256824,
          "startSec": 41.21864469290319,
          "durationSec": 0.4159692158354735,
          "pitchBend": 0.0
        },
        {
          "pitch": 68,
          "velocity": 66,
          "startBeat": 51.203133956206294,
          "durationBeat": 0.8068725547863047,
          "startSec": 42.66927829683858,
          "durationSec": 0.6723937956552539,
          "pitchBend": 0.0
        },
        {
          "pitch": 62,
          "velocity": 68,
          "startBeat": 52.010006510992596,
          "durationBeat": 0.8478221156401221,
          "startSec": 43.34167209249383,
          "durationSec": 0.7065184297001018,
          "pitchBend": 0.0
        },
        {
          "pitch": 65,
          "velocity": 67,
          "startBeat": 52.85782862663272,
          "durationBeat": 0.8889977876745789,
          "startSec": 44.048190522193934,
          "durationSec": 0.7408314897288159,
          "pitchBend": 0.0
        },
        {
          "pitch": 62,
          "velocity": 71,
          "startBeat": 55.24682641430729,
          "durationBeat": 0.4931113434554277,
          "startSec": 46.03902201192275,
          "durationSec": 0.41092611954618974,
          "pitchBend": 0.0
        },
        {
          "pitch": 60,
          "velocity": 73,
          "startBeat": 55.73993775776272,
          "durationBeat": 0.49462519138458744,
          "startSec": 46.449948131468936,
          "durationSec": 0.4121876594871562,
          "pitchBend": 0.0
        },
        {
          "pitch": 62,
          "velocity": 76,
          "startBeat": 56.7261602148672,
          "durationBeat": 0.49765127880758486,
          "startSec": 47.271800179056,
          "durationSec": 0.41470939900632076,
          "pitchBend": 0.0
        },
        {
          "pitch": 63,
          "velocity": 75,
          "startBeat": 57.22381149367479,
          "durationBeat": 0.49916305900256824,
          "startSec": 47.68650957806233,
          "durationSec": 0.4159692158354735,
          "pitchBend": 0.0
        },
        {
          "pitch": 65,
          "velocity": 77,
          "startBeat": 58.96457181839725,
          "durationBeat": 0.8068725547863047,
          "startSec": 49.137143181997715,
          "durationSec": 0.6723937956552539,
          "pitchBend": 0.0
        },
        {
          "pitch": 65,
          "velocity": 78,
          "startBeat": 59.771444373183556,
          "durationBeat": 0.8478221156401221,
          "startSec": 49.80953697765297,
          "durationSec": 0.7065184297001018,
          "pitchBend": 0.0
        },
        {
          "pitch": 63,
          "velocity": 79,
          "startBeat": 60.619266488823676,
          "durationBeat": 0.8889977876745789,
          "startSec": 50.516055407353065,
          "durationSec": 0.7408314897288159,
          "pitchBend": 0.0
        },
        {
          "pitch": 65,
          "velocity": 82,
          "startBeat": 63.00826427649825,
          "durationBeat": 0.4931113434554277,
          "startSec": 52.50688689708188,
          "durationSec": 0.41092611954618974,
          "pitchBend": 0.0
        },
        {
          "pitch": 67,
          "velocity": 84,
          "startBeat": 63.50137561995368,
          "durationBeat": 0.49462519138458744,
          "startSec": 52.91781301662807,
          "durationSec": 0.4121876594871562,
          "pitchBend": 0.0
        },
        {
          "pitch": 70,
          "velocity": 83,
          "startBeat": 64.48759807705817,
          "durationBeat": 0.49765127880758486,
          "startSec": 53.73966506421514,
          "durationSec": 0.41470939900632076,
          "pitchBend": 0.0
        },
        {
          "pitch": 75,
          "velocity": 83,
          "startBeat": 64.98524935586575,
          "durationBeat": 0.49916305900256824,
          "startSec": 54.15437446322146,
          "durationSec": 0.4159692158354735,
          "pitchBend": 0.0
        },
        {
          "pitch": 70,
          "velocity": 86,
          "startBeat": 66.72600968058822,
          "durationBeat": 0.8068725547863047,
          "startSec": 55.60500806715685,
          "durationSec": 0.6723937956552539,
          "pitchBend": 0.0
        },
        {
          "pitch": 68,
          "velocity": 91,
          "startBeat": 67.53288223537453,
          "durationBeat": 0.8478221156401221,
          "startSec": 56.27740186281211,
          "durationSec": 0.7065184297001018,
          "pitchBend": 0.0
        },
        {
          "pitch": 65,
          "velocity": 90,
          "startBeat": 68.38070435101466,
          "durationBeat": 0.8889977876745789,
          "startSec": 56.98392029251222,
          "durationSec": 0.7408314897288159,
          "pitchBend": 0.0
        },
        {
          "pitch": 67,
          "velocity": 91,
          "startBeat": 70.76970213868924,
          "durationBeat": 0.4931113434554277,
          "startSec": 58.974751782241036,
          "durationSec": 0.41092611954618974,
          "pitchBend": 0.0
        },
        {
          "pitch": 68,
          "velocity": 96,
          "startBeat": 71.26281348214467,
          "durationBeat": 0.49462519138458744,
          "startSec": 59.385677901787226,
          "durationSec": 0.4121876594871562,
          "pitchBend": 0.0
        },
        {
          "pitch": 65,
          "velocity": 95,
          "startBeat": 72.24903593924915,
          "durationBeat": 0.49765127880758486,
          "startSec": 60.2075299493743,
          "durationSec": 0.41470939900632076,
          "pitchBend": 0.0
        },
        {
          "pitch": 63,
          "velocity": 94,
          "startBeat": 72.74668721805673,
          "durationBeat": 0.49916305900256824,
          "startSec": 60.62223934838062,
          "durationSec": 0.4159692158354735,
          "pitchBend": 0.0
        },
        {
          "pitch": 65,
          "velocity": 97,
          "startBeat": 74.48744754277921,
          "durationBeat": 0.8068725547863047,
          "startSec": 62.07287295231601,
          "durationSec": 0.6723937956552539,
          "pitchBend": 0.0
        },
        {
          "pitch": 67,
          "velocity": 98,
          "startBeat": 75.29432009756552,
          "durationBeat": 0.8478221156401221,
          "startSec": 62.745266747971264,
          "durationSec": 0.7065184297001018,
          "pitchBend": 0.0
        },
        {
          "pitch": 68,
          "velocity": 100,
          "startBeat": 76.14214221320564,
          "durationBeat": 0.8889977876745789,
          "startSec": 63.451785177671375,
          "durationSec": 0.7408314897288159,
          "pitchBend": 0.0
        },
        {
          "pitch": 68,
          "velocity": 103,
          "startBeat": 78.53114000088023,
          "durationBeat": 0.4931113434554277,
          "startSec": 65.44261666740019,
          "durationSec": 0.41092611954618974,
          "pitchBend": 0.0
        },
        {
          "pitch": 65,
          "velocity": 102,
          "startBeat": 79.02425134433565,
          "durationBeat": 0.49462519138458744,
          "startSec": 65.85354278694638,
          "durationSec": 0.4121876594871562,
          "pitchBend": 0.0
        },
        {
          "pitch": 67,
          "velocity": 104,
          "startBeat": 80.01047380144014,
          "durationBeat": 0.49765127880758486,
          "startSec": 66.67539483453345,
          "durationSec": 0.41470939900632076,
          "pitchBend": 0.0
        },
        {
          "pitch": 70,
          "velocity": 105,
          "startBeat": 80.50812508024772,
          "durationBeat": 0.49916305900256824,
          "startSec": 67.09010423353978,
          "durationSec": 0.4159692158354735,
          "pitchBend": 0.0
        },
        {
          "pitch": 74,
          "velocity": 105,
          "startBeat": 82.2488854049702,
          "durationBeat": 0.8068725547863047,
          "startSec": 68.54073783747516,
          "durationSec": 0.6723937956552539,
          "pitchBend": 0.0
        },
        {
          "pitch": 77,
          "velocity": 109,
          "startBeat": 83.0557579597565,
          "durationBeat": 0.8478221156401221,
          "startSec": 69.21313163313043,
          "durationSec": 0.7065184297001018,
          "pitchBend": 0.0
        },
        {
          "pitch": 72,
          "velocity": 105,
          "startBeat": 83.90358007539663,
          "durationBeat": 0.8889977876745789,
          "startSec": 69.91965006283053,
          "durationSec": 0.7408314897288159,
          "pitchBend": 0.0
        },
        {
          "pitch": 70,
          "velocity": 112,
          "startBeat": 86.29257786307122,
          "durationBeat": 0.4931113434554277,
          "startSec": 71.91048155255935,
          "durationSec": 0.41092611954618974,
          "pitchBend": 0.0
        },
        {
          "pitch": 72,
          "velocity": 111,
          "startBeat": 86.78568920652664,
          "durationBeat": 0.49462519138458744,
          "startSec": 72.32140767210554,
          "durationSec": 0.4121876594871562,
          "pitchBend": 0.0
        },
        {
          "pitch": 70,
          "velocity": 113,
          "startBeat": 87.77191166363113,
          "durationBeat": 0.49765127880758486,
          "startSec": 73.14325971969261,
          "durationSec": 0.41470939900632076,
          "pitchBend": 0.0
        },
        {
          "pitch": 72,
          "velocity": 113,
          "startBeat": 88.26956294243871,
          "durationBeat": 0.49916305900256824,
          "startSec": 73.55796911869894,
          "durationSec": 0.4159692158354735,
          "pitchBend": 0.0
        },
        {
          "pitch": 70,
          "velocity": 114,
          "startBeat": 90.01032326716118,
          "durationBeat": 0.8068725547863047,
          "startSec": 75.00860272263432,
          "durationSec": 0.6723937956552539,
          "pitchBend": 0.0
        },
        {
          "pitch": 68,
          "velocity": 113,
          "startBeat": 90.8171958219475,
          "durationBeat": 0.8478221156401221,
          "startSec": 75.68099651828958,
          "durationSec": 0.7065184297001018,
          "pitchBend": 0.0
        },
        {
          "pitch": 70,
          "velocity": 116,
          "startBeat": 91.66501793758762,
          "durationBeat": 0.8889977876745789,
          "startSec": 76.38751494798969,
          "durationSec": 0.7408314897288159,
          "pitchBend": 0.0
        },
        {
          "pitch": 72,
          "velocity": 123,
          "startBeat": 94.0540157252622,
          "durationBeat": 0.4931113434554277,
          "startSec": 78.3783464377185,
          "durationSec": 0.41092611954618974,
          "pitchBend": 0.0
        },
        {
          "pitch": 74,
          "velocity": 119,
          "startBeat": 94.54712706871763,
          "durationBeat": 0.49462519138458744,
          "startSec": 78.7892725572647,
          "durationSec": 0.4121876594871562,
          "pitchBend": 0.0
        },
        {
          "pitch": 72,
          "velocity": 121,
          "startBeat": 95.53334952582212,
          "durationBeat": 0.49765127880758486,
          "startSec": 79.61112460485177,
          "durationSec": 0.41470939900632076,
          "pitchBend": 0.0
        },
        {
          "pitch": 70,
          "velocity": 120,
          "startBeat": 96.0310008046297,
          "durationBeat": 0.49916305900256824,
          "startSec": 80.02583400385808,
          "durationSec": 0.4159692158354735,
          "pitchBend": 0.0
        },
        {
          "pitch": 72,
          "velocity": 124,
          "startBeat": 97.77176112935217,
          "durationBeat": 0.8068725547863047,
          "startSec": 81.47646760779348,
          "durationSec": 0.6723937956552539,
          "pitchBend": 0.0
        },
        {
          "pitch": 74,
          "velocity": 120,
          "startBeat": 98.57863368413848,
          "durationBeat": 0.8478221156401221,
          "startSec": 82.14886140344873,
          "durationSec": 0.7065184297001018,
          "pitchBend": 0.0
        },
        {
          "pitch": 77,
          "velocity": 124,
          "startBeat": 99.42645579977861,
          "durationBeat": 0.8889977876745789,
          "startSec": 82.85537983314885,
          "durationSec": 0.7408314897288159,
          "pitchBend": 0.0
        },
        {
          "pitch": 82,
          "velocity": 126,
          "startBeat": 101.81545358745319,
          "durationBeat": 0.4931113434554277,
          "startSec": 84.84621132287766,
          "durationSec": 0.41092611954618974,
          "pitchBend": 0.0
        },
        {
          "pitch": 77,
          "velocity": 124,
          "startBeat": 102.30856493090862,
          "durationBeat": 0.49462519138458744,
          "startSec": 85.25713744242385,
          "durationSec": 0.4121876594871562,
          "pitchBend": 0.0
        },
        {
          "pitch": 74,
          "velocity": 127,
          "startBeat": 103.2947873880131,
          "durationBeat": 0.49765127880758486,
          "startSec": 86.07898949001093,
          "durationSec": 0.41470939900632076,
          "pitchBend": 0.0
        },
        {
          "pitch": 72,
          "velocity": 124,
          "startBeat": 103.79243866682069,
          "durationBeat": 0.49916305900256824,
          "startSec": 86.49369888901724,
          "durationSec": 0.4159692158354735,
          "pitchBend": 0.0
        },
        {
          "pitch": 74,
          "velocity": 121,
          "startBeat": 105.53319899154316,
          "durationBeat": 0.8068725547863047,
          "startSec": 87.94433249295264,
          "durationSec": 0.6723937956552539,
          "pitchBend": 0.0
        },
        {
          "pitch": 75,
          "velocity": 123,
          "startBeat": 106.34007154632947,
          "durationBeat": 0.8478221156401221,
          "startSec": 88.6167262886079,
          "durationSec": 0.7065184297001018,
          "pitchBend": 0.0
        },
        {
          "pitch": 72,
          "velocity": 124,
          "startBeat": 107.1878936619696,
          "durationBeat": 0.8889977876745789,
          "startSec": 89.323244718308,
          "durationSec": 0.7408314897288159,
          "pitchBend": 0.0
        },
        {
          "pitch": 70,
          "velocity": 120,
          "startBeat": 109.57689144964418,
          "durationBeat": 0.4931113434554277,
          "startSec": 91.31407620803682,
          "durationSec": 0.41092611954618974,
          "pitchBend": 0.0
        },
        {
          "pitch": 72,
          "velocity": 122,
          "startBeat": 110.0700027930996,
          "durationBeat": 0.49462519138458744,
          "startSec": 91.72500232758301,
          "durationSec": 0.4121876594871562,
          "pitchBend": 0.0
        },
        {
          "pitch": 74,
          "velocity": 117,
          "startBeat": 111.0562252502041,
          "durationBeat": 0.49765127880758486,
          "startSec": 92.54685437517008,
          "durationSec": 0.41470939900632076,
          "pitchBend": 0.0
        },
        {
          "pitch": 75,
          "velocity": 119,
          "startBeat": 111.55387652901167,
          "durationBeat": 0.49916305900256824,
          "startSec": 92.9615637741764,
          "durationSec": 0.4159692158354735,
          "pitchBend": 0.0
        },
        {
          "pitch": 74,
          "velocity": 115,
          "startBeat": 113.29463685373415,
          "durationBeat": 0.8068725547863047,
          "startSec": 94.4121973781118,
          "durationSec": 0.6723937956552539,
          "pitchBend": 0.0
        },
        {
          "pitch": 72,
          "velocity": 116,
          "startBeat": 114.10150940852046,
          "durationBeat": 0.8478221156401221,
          "startSec": 95.08459117376705,
          "durationSec": 0.7065184297001018,
          "pitchBend": 0.0
        },
        {
          "pitch": 74,
          "velocity": 115,
          "startBeat": 114.94933152416058,
          "durationBeat": 0.8889977876745789,
          "startSec": 95.79110960346716,
          "durationSec": 0.7408314897288159,
          "pitchBend": 0.0
        },
        {
          "pitch": 77,
          "velocity": 113,
          "startBeat": 117.33832931183517,
          "durationBeat": 0.4931113434554277,
          "startSec": 97.78194109319598,
          "durationSec": 0.41092611954618974,
          "pitchBend": 0.0
        },
        {
          "pitch": 80,
          "velocity": 113,
          "startBeat": 117.83144065529059,
          "durationBeat": 0.49462519138458744,
          "startSec": 98.19286721274216,
          "durationSec": 0.4121876594871562,
          "pitchBend": 0.0
        },
        {
          "pitch": 82,
          "velocity": 113,
          "startBeat": 118.81766311239508,
          "durationBeat": 0.49765127880758486,
          "startSec": 99.01471926032924,
          "durationSec": 0.41470939900632076,
          "pitchBend": 0.0
        },
        {
          "pitch": 77,
          "velocity": 111,
          "startBeat": 119.31531439120266,
          "durationBeat": 0.49916305900256824,
          "startSec": 99.42942865933556,
          "durationSec": 0.4159692158354735,
          "pitchBend": 0.0
        },
        {
          "pitch": 75,
          "velocity": 107,
          "startBeat": 121.05607471592513,
          "durationBeat": 0.8068725547863047,
          "startSec": 100.88006226327094,
          "durationSec": 0.6723937956552539,
          "pitchBend": 0.0
        },
        {
          "pitch": 72,
          "velocity": 110,
          "startBeat": 121.86294727071144,
          "durationBeat": 0.8478221156401221,
          "startSec": 101.55245605892621,
          "durationSec": 0.7065184297001018,
          "pitchBend": 0.0
        },
        {
          "pitch": 74,
          "velocity": 108,
          "startBeat": 122.71076938635157,
          "durationBeat": 0.8889977876745789,
          "startSec": 102.25897448862631,
          "durationSec": 0.7408314897288159,
          "pitchBend": 0.0
        },
        {
          "pitch": 75,
          "velocity": 105,
          "startBeat": 125.09976717402616,
          "durationBeat": 0.4931113434554277,
          "startSec": 104.24980597835513,
          "durationSec": 0.41092611954618974,
          "pitchBend": 0.0
        },
        {
          "pitch": 72,
          "velocity": 104,
          "startBeat": 125.59287851748158,
          "durationBeat": 0.49462519138458744,
          "startSec": 104.66073209790132,
          "durationSec": 0.4121876594871562,
          "pitchBend": 0.0
        },
        {
          "pitch": 68,
          "velocity": 103,
          "startBeat": 126.57910097458607,
          "durationBeat": 0.49765127880758486,
          "startSec": 105.48258414548839,
          "durationSec": 0.41470939900632076,
          "pitchBend": 0.0
        },
        {
          "pitch": 70,
          "velocity": 102,
          "startBeat": 127.07675225339365,
          "durationBeat": 0.49916305900256824,
          "startSec": 105.89729354449472,
          "durationSec": 0.4159692158354735,
          "pitchBend": 0.0
        },
        {
          "pitch": 72,
          "velocity": 99,
          "startBeat": 128.81751257811612,
          "durationBeat": 0.8068725547863047,
          "startSec": 107.3479271484301,
          "durationSec": 0.6723937956552539,
          "pitchBend": 0.0
        },
        {
          "pitch": 74,
          "velocity": 100,
          "startBeat": 129.62438513290243,
          "durationBeat": 0.8478221156401221,
          "startSec": 108.02032094408537,
          "durationSec": 0.7065184297001018,
          "pitchBend": 0.0
        },
        {
          "pitch": 74,
          "velocity": 97,
          "startBeat": 130.47220724854256,
          "durationBeat": 0.8889977876745789,
          "startSec": 108.72683937378547,
          "durationSec": 0.7408314897288159,
          "pitchBend": 0.0
        },
        {
          "pitch": 72,
          "velocity": 94,
          "startBeat": 132.86120503621714,
          "durationBeat": 0.4931113434554277,
          "startSec": 110.71767086351429,
          "durationSec": 0.41092611954618974,
          "pitchBend": 0.0
        },
        {
          "pitch": 74,
          "velocity": 98,
          "startBeat": 133.35431637967258,
          "durationBeat": 0.49462519138458744,
          "startSec": 111.12859698306049,
          "durationSec": 0.4121876594871562,
          "pitchBend": 0.0
        },
        {
          "pitch": 75,
          "velocity": 95,
          "startBeat": 134.34053883677706,
          "durationBeat": 0.49765127880758486,
          "startSec": 111.95044903064755,
          "durationSec": 0.41470939900632076,
          "pitchBend": 0.0
        },
        {
          "pitch": 77,
          "velocity": 95,
          "startBeat": 134.83819011558464,
          "durationBeat": 0.49916305900256824,
          "startSec": 112.36515842965387,
          "durationSec": 0.4159692158354735,
          "pitchBend": 0.0
        },
        {
          "pitch": 82,
          "velocity": 93,
          "startBeat": 136.5789504403071,
          "durationBeat": 0.8068725547863047,
          "startSec": 113.81579203358925,
          "durationSec": 0.6723937956552539,
          "pitchBend": 0.0
        },
        {
          "pitch": 77,
          "velocity": 89,
          "startBeat": 137.3858229950934,
          "durationBeat": 0.8478221156401221,
          "startSec": 114.48818582924451,
          "durationSec": 0.7065184297001018,
          "pitchBend": 0.0
        },
        {
          "pitch": 74,
          "velocity": 92,
          "startBeat": 138.23364511073353,
          "durationBeat": 0.8889977876745789,
          "startSec": 115.19470425894461,
          "durationSec": 0.7408314897288159,
          "pitchBend": 0.0
        },
        {
          "pitch": 70,
          "velocity": 89,
          "startBeat": 140.62264289840812,
          "durationBeat": 0.4931113434554277,
          "startSec": 117.18553574867343,
          "durationSec": 0.41092611954618974,
          "pitchBend": 0.0
        },
        {
          "pitch": 72,
          "velocity": 89,
          "startBeat": 141.11575424186356,
          "durationBeat": 0.49462519138458744,
          "startSec": 117.59646186821963,
          "durationSec": 0.4121876594871562,
          "pitchBend": 0.0
        },
        {
          "pitch": 74,
          "velocity": 84,
          "startBeat": 142.10197669896803,
          "durationBeat": 0.49765127880758486,
          "startSec": 118.41831391580669,
          "durationSec": 0.41470939900632076,
          "pitchBend": 0.0
        },
        {
          "pitch": 70,
          "velocity": 85,
          "startBeat": 142.5996279777756,
          "durationBeat": 0.49916305900256824,
          "startSec": 118.83302331481302,
          "durationSec": 0.4159692158354735,
          "pitchBend": 0.0
        },
        {
          "pitch": 68,
          "velocity": 83,
          "startBeat": 144.34038830249807,
          "durationBeat": 0.8068725547863047,
          "startSec": 120.28365691874839,
          "durationSec": 0.6723937956552539,
          "pitchBend": 0.0
        },
        {
          "pitch": 70,
          "velocity": 84,
          "startBeat": 145.14726085728438,
          "durationBeat": 0.8478221156401221,
          "startSec": 120.95605071440366,
          "durationSec": 0.7065184297001018,
          "pitchBend": 0.0
        },
        {
          "pitch": 70,
          "velocity": 83,
          "startBeat": 145.9950829729245,
          "durationBeat": 0.8889977876745789,
          "startSec": 121.66256914410376,
          "durationSec": 0.7408314897288159,
          "pitchBend": 0.0
        },
        {
          "pitch": 72,
          "velocity": 80,
          "startBeat": 148.3840807605991,
          "durationBeat": 0.4931113434554277,
          "startSec": 123.65340063383258,
          "durationSec": 0.41092611954618974,
          "pitchBend": 0.0
        },
        {
          "pitch": 70,
          "velocity": 80,
          "startBeat": 148.87719210405453,
          "durationBeat": 0.49462519138458744,
          "startSec": 124.06432675337878,
          "durationSec": 0.4121876594871562,
          "pitchBend": 0.0
        },
        {
          "pitch": 68,
          "velocity": 76,
          "startBeat": 149.863414561159,
          "durationBeat": 0.49765127880758486,
          "startSec": 124.88617880096584,
          "durationSec": 0.41470939900632076,
          "pitchBend": 0.0
        },
        {
          "pitch": 70,
          "velocity": 77,
          "startBeat": 150.36106583996659,
          "durationBeat": 0.49916305900256824,
          "startSec": 125.30088819997216,
          "durationSec": 0.4159692158354735,
          "pitchBend": 0.0
        },
        {
          "pitch": 72,
          "velocity": 75,
          "startBeat": 152.10182616468904,
          "durationBeat": 0.8068725547863047,
          "startSec": 126.75152180390754,
          "durationSec": 0.6723937956552539,
          "pitchBend": 0.0
        },
        {
          "pitch": 75,
          "velocity": 73,
          "startBeat": 152.90869871947535,
          "durationBeat": 0.8478221156401221,
          "startSec": 127.4239155995628,
          "durationSec": 0.7065184297001018,
          "pitchBend": 0.0
        },
        {
          "pitch": 80,
          "velocity": 72,
          "startBeat": 153.75652083511548,
          "durationBeat": 0.8889977876745789,
          "startSec": 128.13043402926291,
          "durationSec": 0.7408314897288159,
          "pitchBend": 0.0
        },
        {
          "pitch": 75,
          "velocity": 72,
          "startBeat": 156.14551862279006,
          "durationBeat": 0.4931113434554277,
          "startSec": 130.12126551899172,
          "durationSec": 0.41092611954618974,
          "pitchBend": 0.0
        },
        {
          "pitch": 72,
          "velocity": 70,
          "startBeat": 156.6386299662455,
          "durationBeat": 0.49462519138458744,
          "startSec": 130.53219163853794,
          "durationSec": 0.4121876594871562,
          "pitchBend": 0.0
        },
        {
          "pitch": 70,
          "velocity": 70,
          "startBeat": 157.62485242334998,
          "durationBeat": 0.49765127880758486,
          "startSec": 131.35404368612498,
          "durationSec": 0.41470939900632076,
          "pitchBend": 0.0
        },
        {
          "pitch": 72,
          "velocity": 69,
          "startBeat": 158.12250370215756,
          "durationBeat": 0.49916305900256824,
          "startSec": 131.7687530851313,
          "durationSec": 0.4159692158354735,
          "pitchBend": 0.0
        },
        {
          "pitch": 74,
          "velocity": 66,
          "startBeat": 159.86326402688002,
          "durationBeat": 0.8068725547863047,
          "startSec": 133.21938668906668,
          "durationSec": 0.6723937956552539,
          "pitchBend": 0.0
        },
        {
          "pitch": 70,
          "velocity": 65,
          "startBeat": 160.67013658166633,
          "durationBeat": 0.8478221156401221,
          "startSec": 133.89178048472195,
          "durationSec": 0.7065184297001018,
          "pitchBend": 0.0
        },
        {
          "pitch": 67,
          "velocity": 64,
          "startBeat": 161.51795869730645,
          "durationBeat": 0.8889977876745789,
          "startSec": 134.59829891442206,
          "durationSec": 0.7408314897288159,
          "pitchBend": 0.0
        },
        {
          "pitch": 68,
          "velocity": 62,
          "startBeat": 163.90695648498104,
          "durationBeat": 0.7546195217241343,
          "startSec": 136.58913040415086,
          "durationSec": 0.6288496014367786,
          "pitchBend": 0.0
        }
      ]
    },
    {
      "name": "bass_cello",
      "instrument": 42,
      "channel": 1,
      "notes": [
        {
          "pitch": 48,
          "velocity": 22,
          "startBeat": 0.0,
          "durationBeat": 2.0,
          "startSec": 0.0,
          "durationSec": 1.6666666666666667,
          "pitchBend": 0.0
        },
        {
          "pitch": 48,
          "velocity": 23,
          "startBeat": 4.0,
          "durationBeat": 2.03304529216285,
          "startSec": 3.3333333333333335,
          "durationSec": 1.6942044101357083,
          "pitchBend": 0.0
        },
        {
          "pitch": 48,
          "velocity": 24,
          "startBeat": 8.03304529216285,
          "durationBeat": 2.0659460856710345,
          "startSec": 6.6942044101357085,
          "durationSec": 1.7216217380591956,
          "pitchBend": 0.0
        },
        {
          "pitch": 48,
          "velocity": 26,
          "startBeat": 16.098991377833883,
          "durationBeat": 2.1307399704769097,
          "startSec": 13.415826148194903,
          "durationSec": 1.7756166420640915,
          "pitchBend": 0.0
        },
        {
          "pitch": 46,
          "velocity": 27,
          "startBeat": 20.229731348310793,
          "durationBeat": 2.162349734602342,
          "startSec": 16.85810945692566,
          "durationSec": 1.8019581121686183,
          "pitchBend": 0.0
        },
        {
          "pitch": 44,
          "velocity": 28,
          "startBeat": 24.392081082913133,
          "durationBeat": 2.3029120638785376,
          "startSec": 20.326734235760945,
          "durationSec": 1.919093386565448,
          "pitchBend": 0.0
        },
        {
          "pitch": 44,
          "velocity": 35,
          "startBeat": 35.294993146791676,
          "durationBeat": 2.2803575286758364,
          "startSec": 29.412494288993063,
          "durationSec": 1.900297940563197,
          "pitchBend": 0.0
        },
        {
          "pitch": 44,
          "velocity": 39,
          "startBeat": 39.57535067546751,
          "durationBeat": 2.3071063563448337,
          "startSec": 32.97945889622293,
          "durationSec": 1.9225886302873616,
          "pitchBend": 0.0
        },
        {
          "pitch": 48,
          "velocity": 48,
          "startBeat": 47.88245703181234,
          "durationBeat": 2.3564642241456983,
          "startSec": 39.90204752651029,
          "durationSec": 1.963720186788082,
          "pitchBend": 0.0
        },
        {
          "pitch": 50,
          "velocity": 53,
          "startBeat": 52.23892125595804,
          "durationBeat": 2.3788574348801674,
          "startSec": 43.53243437996503,
          "durationSec": 1.982381195733473,
          "pitchBend": 0.0
        },
        {
          "pitch": 51,
          "velocity": 56,
          "startBeat": 56.61777869083821,
          "durationBeat": 2.5195736983698356,
          "startSec": 47.18148224236518,
          "durationSec": 2.0996447486415297,
          "pitchBend": 0.0
        },
        {
          "pitch": 53,
          "velocity": 67,
          "startBeat": 67.73735238920804,
          "durationBeat": 2.4509956150664793,
          "startSec": 56.44779365767337,
          "durationSec": 2.042496345888733,
          "pitchBend": 0.0
        },
        {
          "pitch": 56,
          "velocity": 73,
          "startBeat": 72.18834800427452,
          "durationBeat": 2.4642770192448538,
          "startSec": 60.156956670228766,
          "durationSec": 2.053564182704045,
          "pitchBend": 0.0
        },
        {
          "pitch": 55,
          "velocity": 81,
          "startBeat": 80.65262502351936,
          "durationBeat": 2.484700132969665,
          "startSec": 67.2105208529328,
          "durationSec": 2.0705834441413877,
          "pitchBend": 0.0
        },
        {
          "pitch": 55,
          "velocity": 85,
          "startBeat": 85.13732515648903,
          "durationBeat": 2.491752537436191,
          "startSec": 70.94777096374087,
          "durationSec": 2.0764604478634925,
          "pitchBend": 0.0
        },
        {
          "pitch": 53,
          "velocity": 85,
          "startBeat": 89.62907769392521,
          "durationBeat": 2.62148736483566,
          "startSec": 74.69089807827102,
          "durationSec": 2.1845728040297168,
          "pitchBend": 0.0
        },
        {
          "pitch": 50,
          "velocity": 97,
          "startBeat": 100.85056505876086,
          "durationBeat": 2.498292246503335,
          "startSec": 84.04213754896739,
          "durationSec": 2.0819102054194456,
          "pitchBend": 0.0
        },
        {
          "pitch": 48,
          "velocity": 100,
          "startBeat": 105.3488573052642,
          "durationBeat": 2.4944739353007344,
          "startSec": 87.79071442105351,
          "durationSec": 2.0787282794172786,
          "pitchBend": 0.0
        },
        {
          "pitch": 44,
          "velocity": 112,
          "startBeat": 113.84333124056494,
          "durationBeat": 2.480376838068424,
          "startSec": 94.86944270047078,
          "durationSec": 2.0669806983903536,
          "pitchBend": 0.0
        },
        {
          "pitch": 44,
          "velocity": 113,
          "startBeat": 118.32370807863336,
          "durationBeat": 2.4701596950580806,
          "startSec": 98.60309006552781,
          "durationSec": 2.0584664125484005,
          "pitchBend": 0.0
        },
        {
          "pitch": 43,
          "velocity": 108,
          "startBeat": 122.79386777369145,
          "durationBeat": 2.580780996493905,
          "startSec": 102.32822314474288,
          "durationSec": 2.1506508304115877,
          "pitchBend": 0.0
        },
        {
          "pitch": 46,
          "velocity": 101,
          "startBeat": 133.97464877018533,
          "durationBeat": 2.409312407343346,
          "startSec": 111.64554064182111,
          "durationSec": 2.0077603394527883,
          "pitchBend": 0.0
        },
        {
          "pitch": 46,
          "velocity": 101,
          "startBeat": 138.38396117752868,
          "durationBeat": 2.3894386393810563,
          "startSec": 115.31996764794057,
          "durationSec": 1.9911988661508804,
          "pitchBend": 0.0
        },
        {
          "pitch": 44,
          "velocity": 94,
          "startBeat": 146.77339981690974,
          "durationBeat": 2.344676704559283,
          "startSec": 122.31116651409145,
          "durationSec": 1.9538972537994026,
          "pitchBend": 0.0
        },
        {
          "pitch": 44,
          "velocity": 91,
          "startBeat": 151.11807652146902,
          "durationBeat": 2.319984270251658,
          "startSec": 125.93173043455752,
          "durationSec": 1.9333202252097152,
          "pitchBend": 0.0
        },
        {
          "pitch": 48,
          "velocity": 86,
          "startBeat": 155.4380607917207,
          "durationBeat": 2.4085872574535485,
          "startSec": 129.53171732643392,
          "durationSec": 2.0071560478779573,
          "pitchBend": 0.0
        },
        {
          "pitch": 50,
          "velocity": 80,
          "startBeat": 166.44664804917423,
          "durationBeat": 2.208390930247645,
          "startSec": 138.70554004097852,
          "durationSec": 1.840325775206371,
          "pitchBend": 0.0
        },
        {
          "pitch": 53,
          "velocity": 74,
          "startBeat": 170.65503897942187,
          "durationBeat": 2.177896923461258,
          "startSec": 142.21253248285157,
          "durationSec": 1.8149141028843818,
          "pitchBend": 0.0
        },
        {
          "pitch": 56,
          "velocity": 66,
          "startBeat": 178.83293590288312,
          "durationBeat": 2.114711960023376,
          "startSec": 149.02744658573593,
          "durationSec": 1.762259966686147,
          "pitchBend": 0.0
        },
        {
          "pitch": 55,
          "velocity": 65,
          "startBeat": 182.9476478629065,
          "durationBeat": 2.082297295140367,
          "startSec": 152.45637321908876,
          "durationSec": 1.7352477459503057,
          "pitchBend": 0.0
        },
        {
          "pitch": 53,
          "velocity": 61,
          "startBeat": 187.02994515804687,
          "durationBeat": 2.151998903381493,
          "startSec": 155.85828763170574,
          "durationSec": 1.7933324194845777,
          "pitchBend": 0.0
        }
      ]
    }
  ],
  "formSections": [
    {
      "label": "A",
      "startBar": 0,
      "endBar": 4,
      "bars": 4
    },
    {
      "label": "B",
      "startBar": 4,
      "endBar": 8,
      "bars": 4
    },
    {
      "label": "C",
      "startBar": 8,
      "endBar": 16,
      "bars": 8
    },
    {
      "label": "D",
      "startBar": 16,
      "endBar": 28,
      "bars": 12
    },
    {
      "label": "E",
      "startBar": 28,
      "endBar": 48,
      "bars": 20
    }
  ]
}